<svg width="221" height="64" viewBox="0 0 221 64" fill="none" xmlns="http://www.w3.org/2000/svg"><path d="M49.485 11.526a20.83 20.83 0 0 0-12.789-2.294c-11.614 1.455-17.864 10.91-18.592 28.095v.12h8.105v-.112c.352-8.68 2.206-14.387 5.683-17.504 2.342-2.087 5.46-3.006 9.28-2.726a9.12 9.12 0 0 1 7.346 4.588 9.72 9.72 0 0 1 .295 9.096c-3.509 7.25-11.99 8.369-19.83 8.505H16.21c-.408 0-.927.056-1.43.104-5.06.495-10.592 1.598-13.261 6.394a12.789 12.789 0 0 0 1.263 13.996A12.373 12.373 0 0 0 12.174 64a13.169 13.169 0 0 0 4.564-.8c3.077-1.15 8.376-4.515 9.287-14.139v-.128h-8.144v.096c-.32 2.262-1.551 7.45-6.267 6.89a4.195 4.195 0 0 1-3.245-2.462 3.853 3.853 0 0 1 .272-3.82c1.063-1.599 3.668-2.398 7.993-2.558h1.374l11.342.08c5.284-.136 10.903-.592 16.274-3.038a21.692 21.692 0 0 0 10.015-9.12 17.456 17.456 0 0 0 1.687-13.276 16.339 16.339 0 0 0-7.841-10.199z" fill="url(#paint0_linear)"/><path d="M158.949 39.557a4.851 4.851 0 0 1-3.381 1.431 4.334 4.334 0 0 1-4.3-3.925V11.638h-8.617v4.476a14.54 14.54 0 0 0-5.171-3.653 17.17 17.17 0 0 0-6.618-1.27 19.552 19.552 0 0 0-9.592 2.341 16.788 16.788 0 0 0-6.626 6.586 19.925 19.925 0 0 0-2.398 9.896c-.067 3.46.759 6.879 2.398 9.927a16.652 16.652 0 0 0 6.626 6.618 19.47 19.47 0 0 0 9.592 2.342 17.73 17.73 0 0 0 6.93-1.31c2.056-.851 3.869-2.2 5.275-3.925l1.135-1.966a12.404 12.404 0 0 0 8.412 7.037 12.417 12.417 0 0 0 10.707-2.378 18.777 18.777 0 0 1-4.372-6.802zm-19.263-1.19a10.53 10.53 0 0 1-7.857 3.197 10.391 10.391 0 0 1-7.825-3.198 11.46 11.46 0 0 1-3.07-8.336 11.497 11.497 0 0 1 3.07-8.345 10.384 10.384 0 0 1 7.825-3.197 10.554 10.554 0 0 1 7.857 3.197 11.412 11.412 0 0 1 3.101 8.345 11.381 11.381 0 0 1-3.101 8.336zm76.749-23.076c2.782 2.712 4.172 6.732 4.172 12.061v21.102h-8.584V28.47c0-3.197-.76-5.622-2.278-7.273-1.519-1.652-3.68-2.468-6.483-2.446-3.197 0-5.701.953-7.513 2.861-1.812 1.908-2.731 4.655-2.758 8.24v18.6h-8.616V0h8.616v15.906a14.09 14.09 0 0 1 5.276-3.477 19.254 19.254 0 0 1 6.994-1.239c4.646 0 8.371 1.367 11.174 4.1zm-34.77 23.587a7.99 7.99 0 0 1-5.323 2.03c-4.348 0-7.473-3.5-7.537-7.825V18.808h9.855V11.91h-9.855V0h-8.625v32.947a16.178 16.178 0 0 0 16.162 16.162h.152a15.853 15.853 0 0 0 5.171-.88v-9.351zm-80.889-25.29a16.981 16.981 0 0 1 6.658 6.618 19.746 19.746 0 0 1 2.398 9.864 19.97 19.97 0 0 1-2.398 9.895 16.858 16.858 0 0 1-6.658 6.65 19.47 19.47 0 0 1-9.591 2.342c-4.962 0-8.891-1.654-11.79-4.964v17.833h-8.64V11.638h8.2v4.795a13.421 13.421 0 0 1 5.276-3.924 17.873 17.873 0 0 1 6.93-1.319 19.55 19.55 0 0 1 9.615 2.398zm-2.757 24.778a11.467 11.467 0 0 0 3.069-8.336 11.497 11.497 0 0 0-3.07-8.345 10.43 10.43 0 0 0-7.825-3.197 11.07 11.07 0 0 0-5.595 1.415 10.223 10.223 0 0 0-3.916 4.076 12.293 12.293 0 0 0-1.447 6.067 12.341 12.341 0 0 0 1.447 6.066 10.2 10.2 0 0 0 3.932 3.997 11.07 11.07 0 0 0 5.595 1.415 10.39 10.39 0 0 0 7.81-3.158z" fill="#2B1B9A"/><defs><linearGradient id="paint0_linear" y1="36.528" x2="57.949" y2="36.528" gradientUnits="userSpaceOnUse"><stop stop-color="#67B6F4"/><stop offset=".4" stop-color="#79A9F4"/><stop offset="1" stop-color="#9D91F5"/></linearGradient></defs></svg>