<svg width="174" height="174" fill="none" xmlns="http://www.w3.org/2000/svg"><path d="M162.56 42.3a7.407 7.407 0 0 0-4.56-6.83c0-.39.06-.78.1-1.18.65-5.51-4.35-9.92-8.85-9.55.541-1.716.671-3.535.38-5.31a6.136 6.136 0 0 0-5.401-4.457 6.127 6.127 0 0 0-2.449.297C140.54 7.49 132 7.35 130.6 9c-2-2.6-4.78-4.83-8.3-4.83a10.778 10.778 0 0 0-7.56 3.1h-.28a10.757 10.757 0 0 0-12.358-.791 10.755 10.755 0 0 0-3.183 2.991 7.39 7.39 0 0 0-9.78 4.12 7.35 7.35 0 0 0-9.38 9.25 7.39 7.39 0 0 0-6.22 7.29c0 .632.084 1.26.25 1.87a7.36 7.36 0 0 0-3 10.52v.14a7.34 7.34 0 0 0-2.12 6.58 11.081 11.081 0 0 0 2.65 5.13 9.89 9.89 0 0 0-2 5.5c0 2.91 1.43 4.84 3.31 6.77a16.42 16.42 0 0 0-.31 3.24 7.39 7.39 0 0 0 7.39 7.39c.247.015.494.015.74 0 1.27 4.08 4.49 7.88 11.77 7a10.38 10.38 0 0 0 6.68-3.67C109 90.88 129.3 74.93 129.3 75.14c0 4.09 6.47 2.24 7.78 2.08 3.88-.45 8.09-4.18 8.37-8a7.376 7.376 0 0 0 8.435-1.118 7.384 7.384 0 0 0 1.775-8.322 7.402 7.402 0 0 0 4.91-7 7.323 7.323 0 0 0-1.37-4.27 7.38 7.38 0 0 0 3.36-6.21z" fill="#A195F9"/><path d="M91.39 41.58a4.116 4.116 0 0 0-.52-.68s.21.29.52.68zm12.39 52.88c-.12.928-.096 1.87.07 2.79.92 6.09 6.26 14.5 7.06 15.12.13.1.25 0 .42-.18a28.692 28.692 0 0 1 5.8-6.49c.277-.249.568-.482.87-.7 3.27-2.24 9.12-4 11.75-5.6a17.34 17.34 0 0 0 5.6-6.27s-.82-3-1.3-6c-1.09-6.7-.59-24.87-1.33-28.72-1.61 3.25-7.13 17.54-13 21.75-3.56 2.55-6.58 4.78-11.41 3.74l-.05 5.3a2.58 2.58 0 0 0-1.57.13c-1.07.83-2.34 1.51-2.91 5.13z" fill="#fff"/><path d="M138.38 44.9a3.15 3.15 0 0 0-2.29-.37c-2.12.19-4.72 3.76-4.72 3.76s-3.12 2.23-7.6-.53c-4.23-2.6-3-6.49-3-6.49-1.38-.14-3.82-1.28-4.4-2.82-1-2.52-1.25-4.11-1.54-3C112 45.93 108 44.71 103.63 45c-3.44.22-6.59-2.37-6.59-2.37-.94.512-1.951.88-3 1.09-.93-.06-2.06-1.31-2.7-2.13.77 1.23 3.67 12.25-1.37 13.5 1.47 9.43 4 22.57 10.86 26.52a34.204 34.204 0 0 0 3.46 1.77c.754.278 1.526.505 2.31.68 4.84 1 9.28-1.85 12.85-4.39 5.88-4.21 9.36-10.44 11-13.69.08-.17 2.32-4.34 2.32-4.34s2.56 1.36 5.77-2.64c2.04-2.58 4.91-11.06-.16-14.1z" fill="#fff"/><path d="M102.8 64.71c0 1.82-.69 1.49-.69 3.31s3.23 2.62 5 .38m5.82 2.98c-3.48 3.37-7.07 3.12-9.2 1.91" stroke="#2B1B9E" stroke-width="1.5" stroke-linecap="round" stroke-linejoin="round"/><path d="M126.22 73.18c-2.57 3.76-6.43 8.84-12.36 10.26-9 2.16-14.64-1.81-17.4-6.73-3.92-7-4.86-12.57-6.29-19.93m41.2-8.11c2.8-4.15 5-4.36 6.61-3.72 2.61 1 3.2 5 2.88 7.4-.73 5.63-3.86 8.37-5.67 9-.441.16-.902.253-1.37.28m-27.22-6.34a3.627 3.627 0 0 1 4.88-.52m-16.63 3.85a3.26 3.26 0 0 1 4.41-.77" stroke="#2B1B9E" stroke-width="1.5" stroke-linecap="round" stroke-linejoin="round"/><path d="M97.19 65.39c-.89-1.62-1.34-4.16-.89-5.17a1.14 1.14 0 0 1 1.81-.3 5 5 0 0 1 1.19 2.37 6 6 0 0 1 .46 3.26 1.19 1.19 0 0 1-.78.69 1.55 1.55 0 0 1-1.79-.85zm11.51-3.01c-.79-1.67-1.08-4.23-.56-5.21a1.145 1.145 0 0 1 .886-.562A1.148 1.148 0 0 1 110 57c.551.71.897 1.557 1 2.45a6.087 6.087 0 0 1 .25 3.28 1.173 1.173 0 0 1-.83.64 1.541 1.541 0 0 1-1.72-.99z" fill="#2B1B9E"/><path d="M93.44 35.94A3.25 3.25 0 0 0 91 38.53a4.62 4.62 0 0 0 .92 3.59c.383.54.882.987 1.46 1.31 1.45.76 2.83 0 3.85-1.29-.31.34 5.42 4.86 12 1.24 3.88-2.13 5.9-5.69 6.47-11.37" stroke="#2B1B9E" stroke-width="1.5" stroke-linecap="round" stroke-linejoin="round"/><path d="M115.15 35.23c0 7.15 10.45 9 11.4 4.18a1.734 1.734 0 0 0-.677-1.385 1.729 1.729 0 0 0-1.513-.295 5.001 5.001 0 0 0-4.12 4.43 6.95 6.95 0 0 0 3.07 5.89 8.803 8.803 0 0 0 7.92.69m2.77 9.69a6.997 6.997 0 0 0-4.1 6.57c.029.861.241 1.707.62 2.48a5.41 5.41 0 0 0 1.62 1.81 6.72 6.72 0 0 0 5.69 1.08 6.123 6.123 0 0 0 4.14-4 5.59 5.59 0 0 0-1.38-5.52M91.71 68a5.75 5.75 0 0 0-4.86 4.75A6.1 6.1 0 0 0 90 78.82a6.5 6.5 0 0 0 6.88-.6m34.49-69.16c9.28-2 11.08 6.08 10.11 8.19-1.88 4.07-5.52 1.74-4.26-.44 1.26-2.18 6.63-1.87 8.32-1.08 4.93 2.31 4.22 8 3.14 9.48-.19-.17 5.52-1.66 7.5 4.16" stroke="#2B1B9E" stroke-width="1.5" stroke-linecap="round" stroke-linejoin="round"/><path d="M160.57 109.74c-6.58-13.54-9.44-12.2-9.44-12.2s3.31-9.74-5.92-11.7a84.47 84.47 0 0 0-10.78-1v4.26c.128 1.55.339 3.092.63 4.62 0 0-3.25 4.39-6.25 6.26-2.2 1.36-14.53 8-15.31 8.61-.15.18-1.44 3.88-1.54 3.8-1.49-.59-7.21-9-7.34-13.86a29.477 29.477 0 0 1-.37-4.44c.48-3 3.41-4.58 4.29-5.21a17.11 17.11 0 0 0-11.37-.45c-2 .58-6 4-6 4l-4.81 2.34s-7.74 4.36-8 9.43c-.19 3.38-4.9 27.59-7.21 38.35v25.65c1.52 0 67.32.65 73.12 1.23 16.4 1.63 27.64.25 27.94-13.65.09-4.26-3.15-7.48-5.25-15.61-3.2-12.56-5.21-28.01-6.39-30.43z" fill="#EFF8FE"/><path d="M129.24 163.39c1.34-.07 2 2.57 2.18 3.41.35 1.29-.76 1.66-2.09 1.66l-43 2.47 1-7.7 41.91.16z" fill="#67BAF8"/><path d="M82 155c0-.4 9.1-6.34 20.77-2.8 5.73 1.73 16.9.14 21.34-.44 6-.79 28.6-6.6 37.78-1.88s8.2 15.59 4.11 18.06c-7.83 4.74-30.65.22-36.55-1-5.9-1.22-20.64-3.15-22.48-2.1-1.84 1.05-5.35-.65-9.16-1.44-3.81-.79-13.45 7.17-14.23 4.28C82.8 164.79 82 155 82 155z" fill="#fff"/><path d="M108 84.25a61.13 61.13 0 0 1 0 10.84m6.66 22.26c2.88-4.73 11.55-7.31 17.05-9.06 11.15-3.54 14.83-4.85 17.58-8.65 3.46-4.77 2.52-13.43-7.52-14.25-9.54-.78-10.83 1.64-10.31 3.78.21.85 1.84 2.19 3 .8 1.46-1.7-.13-3.63-.52-5.83-.68-3.87-.73-11.3-.81-13.69" stroke="#2B1B9E" stroke-width="1.5" stroke-linecap="round" stroke-linejoin="round"/><path d="M108.1 88.27c-5.86-2.94-16.49.74-18.95 5.85-1.4 2.91.41 6.57 7.64 11.22 1.5 1 10.58 4.55 11.7 15 .84 7.85-2.08 30-.26 31.75M84.57 96.58c-7.43 4-6 10.89-6.59 14.34-1.3 7.87-6.9 32.06-9 39.77m20.26-37.96c-.58 6.34-3.14 8.83-4.49 13.58" stroke="#2B1B9E" stroke-width="1.5" stroke-linecap="round" stroke-linejoin="round"/><path d="M104.45 93.17c-1 3-.36 10.68 6.72 19.31 2.79-5.23 7.25-7.75 12.07-10 5.07-2.33 9.06-3.93 12.06-8.86M105.11 74c-1.11 2 1.2 2.89 1.62 3a4.553 4.553 0 0 0 5.16-1.54M73.9 32.16a2.69 2.69 0 0 0-1.62 1.24A12.49 12.49 0 0 0 70 40.05c0 .93 0 4 2.3 4.62 3 .79 2.75-2.51.67-2.69-4.54-.39-6.35 4.91-4.14 9.48 1 2 2.1 2.53 3.74 3.26-2.3.83-3.54 3.45-3.64 5.9-.18 4.06 3.74 5.22 5.15 5.4m17.79-23.9c.72 1.27 2.91 7.52.29 10.15-1 1-5.83-.13-5.08-1.86.86-2 4.67.13 4.26 2.9A8.85 8.85 0 0 1 87 59.56" stroke="#2B1B9E" stroke-width="1.5" stroke-linecap="round" stroke-linejoin="round"/><path d="M79.18 113.66H8.05a3.475 3.475 0 0 0-2.745 1.346A3.465 3.465 0 0 0 4.69 118l10.86 50.33a3.477 3.477 0 0 0 3.36 2.58h70.16a3.479 3.479 0 0 0 3.38-4.3l-9.89-50.33a3.475 3.475 0 0 0-3.38-2.62z" fill="#fff"/><path d="M73.43 167.02a7.82 7.82 0 1 0 0-15.64 7.82 7.82 0 0 0 0 15.64z" fill="#FFB41E"/><path d="M73.43 167.02a7.82 7.82 0 1 0 0-15.64 7.82 7.82 0 0 0 0 15.64z" stroke="#2B1B9E" stroke-width="1.5" stroke-linecap="round" stroke-linejoin="round"/><path d="M77 154.73a3.645 3.645 0 0 0-2.24-.4c-2 .26-3.14 1.92-3.26 4.93H73a4.27 4.27 0 0 1 1-3.08 2.174 2.174 0 0 1 1.63-.48 1.635 1.635 0 0 1 1.29.81 1.71 1.71 0 0 1 0 1.6c-.62 1.27-2.11 1.46-3.48 1.49h-2.5a2.746 2.746 0 0 0-2.32 1.12 2.23 2.23 0 0 0 .22 2.46 2.166 2.166 0 0 0 1.65.74c.274-.002.544-.053.8-.15a2.646 2.646 0 0 0 1.63-2.48h-1.43c-.06.4-.28 1.31-1.1 1.21a.715.715 0 0 1-.57-.43.67.67 0 0 1 0-.67c.19-.27.65-.42 1.4-.45h2.28a7.13 7.13 0 0 0 2.86-.53 3.892 3.892 0 0 0 1.76-1.59 3.14 3.14 0 0 0 .29-2.34 2.867 2.867 0 0 0-1.41-1.76z" fill="#2B1B9E"/><path d="M89.07 170.94H18.91a3.475 3.475 0 0 1-3.36-2.58L4.69 118a3.471 3.471 0 0 1 3.36-4.37h71.13a3.483 3.483 0 0 1 3.38 2.65l9.89 50.33a3.482 3.482 0 0 1-3.38 4.3m-77.4-53.04s21.42-.28 23.74-.42m59.83 52.76l33.32-1.05M90 151.67a32.617 32.617 0 0 1 7.52-.17c2.11.3 7.57 1.13 9.7 1.13 5.859.032 11.711-.406 17.5-1.31 10-1.56 20.76-3.92 25.36-4.28 14-1.11 21.25 10.84 19 17.66m-4.02 3.55c-8.25 2.84-15.33 2.93-30.64-.57-6.95-1.59-26.19-3.5-26.19-3.5-5.44 1.57-9.81-.85-10.93-1.16l-4.86.81m45.04-47.27c1.21 9.71 6 19.08 8.27 28.6m10.36-43.95c2.74 2.74 4.15 6.43 5.38 10.1 5.64 16.84 2 28.52 11 43.82m-81.23 4.15c1-.33 4.33-1.75 6.43-1.22" stroke="#2B1B9E" stroke-width="1.5" stroke-linecap="round" stroke-linejoin="round"/><path d="M49.85 144.86a4.56 4.56 0 1 1-4.55-4.56" stroke="#2B1B9E" stroke-width="1.5" stroke-linecap="round" stroke-linejoin="round"/></svg>