<svg width="174" height="174" fill="none" xmlns="http://www.w3.org/2000/svg"><path d="M132.3 117.57c-3.07-9.88-7.42-20.8-11.87-24.34-5-4-9.2-4.45-12.5-4.91-1.3-.19-14.19-1.88-14.19-1.88L93.4 89a43.062 43.062 0 0 1 2.6 5.82c.56 3.21 1.62 11.67 1.94 16.83.08 1.33.16 2.18-.42 2.54a1.556 1.556 0 0 0-.71 1s-6.19-4.06-8.21-5.71c-5.68-4.62-18.7-20.48-21.32-23.7-4.65.48-7.85.88-8 .91-6.83 1-23.33 4.79-25.94 17.31a81.29 81.29 0 0 0-1.65 13.79c-.38 10.79-1.31 31.6-.56 43.19.16 2.47 2.57 7 4.42 7.92 3.43 1.78 7.64.94 10.42.92l35.62-.75 7.25.12 2.63-30.87c4.839.633 9.745.549 14.56-.25 0 0 1.32 9.89 1.69 13.06.47 4.13 1.25 16.27 1.36 18l26.2-.29s-1.07-45.13-2.98-51.27z" fill="#F5F4FE"/><path d="M53.53 53.47c.29-1 2.92-5.36 7.33-11.15 3-4 9.62-11.26 22.29-16.65 12.36-5.27 23.899-2.73 27.999-4 .285-.07.578-.1.87-.09l.11-.06s-9.09-4.36-11.91-6.16c-4.13-2.64-7.75-6-17.75-8.25s-24.34.5-33.84 20.33C44.86 35.2 51.18 53.07 52 55.33c.475-.648.986-1.269 1.53-1.86z" fill="#fff"/><path d="M52.27 55l-.26.29.08.24c.037-.184.097-.362.18-.53z" fill="#FFB81E"/><path d="M156.3 160.07c-1.12-6.25-7.81-19.57-7.81-19.57l-2.25-6.68c-.08.16-.64-1.76-.73-1.67-.86.77-1.11 3.47-2.65 5.67-1.54 2.2-5.54 2.61-7.71 1.91s-2.72-3.79-2.72-3.79-.31-.32-1.46-1.33c-1.4-1.23.08-3.75.08-3.75a2.122 2.122 0 0 1-2.22-1.46l-.78-.08 6 39.5 17.5.25s5.88-2.75 4.75-9zm-88.59-83.3s-4.47 1.8-5.84 3.13a10.9 10.9 0 0 0-2.63 4.38 3.65 3.65 0 0 0 .53 3.35c3 4.05 12.3 16.18 24 26.06 4.39 3.71 9.84 7.72 9.84 7.72l2.67-6S83.72 104.08 82 102.75c-1.72-1.33-3.69-3-3.69-3a29.634 29.634 0 0 0-4.31-5.4c-2.38-2.18-6.83-8.75-6.83-8.75l.57-8.83" fill="#fff"/><path d="M94 127.3s.56-11.19 3.18-11.94 7.5-.13 9.25-1.25 2.94-3.44 8.19-3.44c1.85 0 5.37-.19 6.75.75 2.55 1.74.63 2.81 4.19 3.81 2.79.79 7.44.19 9.31 2.44s2.75 11.34.19 13.94c-1.15 1.17-6.08 2.89-6.08 2.89l4.52 19.17s2.1 7-6.15 11.23c-5.92 3-14.63 1.6-17-.67-1.87-1.76-2-8.42-2.81-14.58-1-7.85-2.06-15.73-2.06-15.73L94 127.3z" fill="#A195F9"/><path d="M94 125.8s.56-11.19 3.18-11.94 7.5-.13 9.25-1.25 2.94-3.44 8.19-3.44c1.85 0 5.37-.19 6.75.75 2.55 1.74.63 2.81 4.19 3.81 2.79.79 7.44.19 9.31 2.44s2.75 11.34.19 13.94c-1.15 1.17-6 3.08-6 3.08s-5.22-3.56-7.25-3.87c-4.13-.64-16.41 3.1-16.41 3.1L94 125.8z" fill="#FFB41E"/><path d="M131.679 155.19c.5 3.33-4.64 6.46-9.5 7.19-4.86.73-10.58.12-11.08-3.21s5.34-7.25 10.2-8c4.86-.75 9.88.69 10.38 4.02z" fill="#F5F4FE"/><path d="M146.209 127c-.35-.74.53-1.7.34-2.2-1.37-3.5-8.44-3-8.5-3.07-1.59-.37-3.65-.22-4.24.65-1.79 2.65 1.58 3.81 1.58 3.81s-8.25-.66-7.83 1.29c0 0 .1.63.11.66a2.416 2.416 0 0 0 2.55 1.68s-1.7 2.9-.1 4.31c1.33 1.17 1.68 1.54 1.68 1.54s.64 3.53 3.13 4.35c2.49.82 7.09.33 8.86-2.2 1.77-2.53 1.24-3.94 2.23-4.83.11-.1.72-1.5.82-1.68.74-1.57.16-2.71-.63-4.31z" fill="#fff"/><path d="M124.239 25.57c-3.45-2.65-9.72-4-12.26-4-.293-.01-.585.02-.87.09-4.06 1.31-15.6-1.23-28 4a61.299 61.299 0 0 0-23.75 18.28c-4.41 5.79-5.54 8.5-5.83 9.53-.053.172-.087.35-.1.53-.405.31-.793.645-1.16 1a2.202 2.202 0 0 0-.18.53l-.09-.2c-1.09 1.17-2.36 3-2.15 4.86C51 70 54.79 66.26 56 67c1 .66 2.63.16 4.75.69 3 .75 2.21 3.82 3.5 4.75a2.92 2.92 0 0 0 1.89.38 9.606 9.606 0 0 0 2.15-.37c.1-1 .18-1.82.22-2.47.208-1.993.251-4 .13-6 0 0-3.52.4-4.83-1.12-5.88-6.86-2.54-13.6-1.13-14.48 4.5-2.81 7.18 3 7.18 3l1.36.53 1.33-.09s1-.89 2.48-2.13c.73-1.62 1.74-3.33 2.85-3.75a23.66 23.66 0 0 0 4-1.9c1-.83 2-1.54 2.65-2l.23-.16c.8-.73 1.505-1.556 2.1-2.46.29-.71.34-1.28.79-1.63h.08c0-.13.07-.2.07-.2s10.93-4.54 16.78-.8l.09.07a6.59 6.59 0 0 1 1.42 1.23c.34.389.629.819.86 1.28 1.77 2.56 3.45 5.71 7.27 5.65 4.56-.06 3.37-6.21 7.83-4.64 7.54 2.62 9.75-9 2.19-14.81z" fill="#67BAF8"/><path d="M77.88 45.94c-1.11.42-2.12 2.13-2.85 3.75A329.4 329.4 0 0 1 81.84 44a23.648 23.648 0 0 1-3.96 1.94z" fill="#fff"/><path d="M88.59 109.48c2 1.65 8.21 5.71 8.21 5.71a1.56 1.56 0 0 1 .71-1c.58-.36.5-1.21.42-2.54-.32-5.16-1.38-13.65-1.93-16.83A43.074 43.074 0 0 0 93.4 89l.34-2.54s1.75-1 3.81-2.43c2.47-1.69 5.38-3.94 6.25-5.69 4.5-9 10.35-33.52 7.6-33.48-4.16 0-3.1-2.73-4.49-5.49a9.643 9.643 0 0 0-2.28-2.51l-.09-.07a5.218 5.218 0 0 0-.61-.33c-4.83-2.08-14.32 0-16.24 1.33a8.36 8.36 0 0 1-.87 1.68c-.28.7-3.81 3.89-5 4.59-2.19 1.73-6 4.13-7.91 5.78a7.541 7.541 0 0 1-1.75 2.5l-1-.41-1.36-.53s-2.68-5.81-7.18-3c-1.41.88-4.75 7.6 1.12 14.44 1.31 1.52 4.83 1.12 4.83 1.12.12 2 .077 4.007-.13 6 0 .65-.12 1.51-.22 2.47-.48 4.9-1.48 12.74-1.48 12.74l.48.59c2.68 3.24 15.7 19.1 21.37 23.72z" fill="#fff"/><path d="M104.63 36.84a9.605 9.605 0 0 1 2.28 2.51 6.152 6.152 0 0 0-.86-1.28 6.61 6.61 0 0 0-1.42-1.23zm-.701-.4c.211.096.415.206.61.33-5.85-3.74-16.78.8-16.78.8s0 .07-.07.2c1.92-1.38 11.41-3.41 16.24-1.33zm-17.11 3.01a13.07 13.07 0 0 1-2.1 2.46 5.42 5.42 0 0 0 2.1-2.46zM53.3 139.69s-11.16 2.41-16.37 9.13c-3.94 5.08-6.34 12.33-2 18.62 5.29 7.69 16.08 1.31 20.91-1.79 7.67-4.92 13.76-12.65 20.5-18 5.47-4.33 12.21-9.52 12.21-9.52s16.331 9.85 19.921 3.31c.14-.26 1.43-.58 2.21-1.19 2.25-1.75.48-3.1.87-3.25 3.17-1.23 1.08-3.35 1.08-3.35s2.11-.69 2.21-2.17c.07-.87-1.12-2.57-4.29-2.6-3.71 0-16.08-5.88-15.81-5.81.5.12 1.81-7.88 1.81-7.88s-3.25-2.19-5.62.56c-.62.72-7.5 9.84-10.84 11.69-9.53 5.28-26.79 12.25-26.79 12.25zm40.81-50.37s2.72-.12 8 3.8a32.215 32.215 0 0 1 11.37 16.53l5.5-.33s-1.21-9.18-7.71-15.23c-8.5-7.92-11.8-7-15.3-8.51l-1.89 1.09.03 2.65z" fill="#fff"/><path d="M109 169.11c-.11-1.71-.89-13.85-1.36-18-.37-3.17-1.69-13.06-1.69-13.06a49.624 49.624 0 0 1-14.56.25l-2.59 30.89 8.35.05 11.9.08-.05-.21zm17.929-52.63s-.63 3.21 1 3.21 3.94.44 4.84-.34a1.656 1.656 0 0 0 .311-2.16 1.659 1.659 0 0 0-.571-.54c-.94-.54-5.17-.65-5.58-.17z" fill="#fff"/><path d="M67.71 76.77s-4.47 1.8-5.84 3.13a10.9 10.9 0 0 0-2.63 4.38 3.65 3.65 0 0 0 .53 3.35c3 4.05 12.3 16.18 24 26.06m10.34-24.37s2.72-.12 7.999 3.8a32.215 32.215 0 0 1 11.37 16.53" stroke="#2B1B9E" stroke-width="1.5" stroke-linecap="round" stroke-linejoin="round"/><path d="M94.43 114.32c-6.5 1.25-7.38 8.31-10.59 10.58-3.21 2.27-21 11-24.66 12.54-8 3.26-11.36 3.92-13.42 6.29-1.08 1.25-1.46 2.52.5 2.75 2.83.34 6.44-2.46 6.92-5 1.75-9.46 1.72-16.07 1.87-26.37.13-8.25-3.12-12.88-7.25-14.13" stroke="#2B1B9E" stroke-width="1.5" stroke-linecap="round" stroke-linejoin="round"/><path d="M57.55 86.88c-.77.59-9.44 1.27-16.25 5.81-11.62 7.75-9.58 30-9.72 35.68-.22 9.23-.49 27.94-.49 27.94s-1.25 9.92 5.25 13.09m68.17-81.33c4.27.52 11 2.31 15.42 6 5.08 4.25 8.12 13.66 11 19.75m-57.4-38.58a24.769 24.769 0 0 0 4.37 5.68 18.8 18.8 0 0 0 9.67 5.38A14.6 14.6 0 0 0 98.3 84c3.279-2.32 5.339-6 6.999-9.64a84.888 84.888 0 0 0 6.41-27.95m-41.84 5.79c-2.47-7-6.74-4.8-8-3-1.26 1.8-1.31 4.24-1.08 6.45.11 1.742.573 3.443 1.36 5a5.901 5.901 0 0 0 4 3.06 9.353 9.353 0 0 1 2.12.31M90.23 50s1.86-1.41 3.9.7m11.48 2.86s2.42-1.07 3.45.61" stroke="#2B1B9E" stroke-width="1.5" stroke-linecap="round" stroke-linejoin="round"/><path d="M97.77 63.18c-.48 1.42.36 5.49-.43 5.89-.83.408-1.707.714-2.61.91m2.78 2.92c-2.67 1-8.71-.54-10.08-2.5 0 0-1.21 6.42 4.95 7.33" stroke="#2B1B9E" stroke-width="1.5" stroke-linecap="round" stroke-linejoin="round"/><path d="M89.06 64.46c.08-1.91 1.06-4.39 2-5a1.18 1.18 0 0 1 1.76.7 5.14 5.14 0 0 1-.24 2.74 6.26 6.26 0 0 1-1.33 3.1 1.269 1.269 0 0 1-1.07.19 1.61 1.61 0 0 1-1.12-1.73zm13.089 2.87c.08-1.91 1-4.39 2-5a1.172 1.172 0 0 1 1.76.7 4.994 4.994 0 0 1-.24 2.74 6.177 6.177 0 0 1-1.34 3.12 1.228 1.228 0 0 1-1.07.19 1.6 1.6 0 0 1-1.11-1.75z" fill="#2B1B9E"/><path d="M81.77 57.19c-1.31 3.47.31 6.09 1.84 7.81 2.35 2.63 7.56 2.85 9.67 1.89A6.231 6.231 0 0 0 96 64.14a8.29 8.29 0 0 0 .59-6.62c-1.78-4.48-4.19-5.05-7.23-5.24-.96-.05-5.9.45-7.59 4.91zM99.34 61a7.33 7.33 0 0 0 1.659 7.42c2.07 2.5 6.66 2.7 8.53 1.79a5.803 5.803 0 0 0 2.4-2.61 8.47 8.47 0 0 0 .52-6.3c-1.57-4.26-3.7-4.8-6.38-5a7.171 7.171 0 0 0-6.73 4.7z" stroke="#2B1B9E" stroke-width="1.5" stroke-linecap="round" stroke-linejoin="round"/><path d="M96.84 61.94a1.43 1.43 0 0 1 1.88.46M72.55 51.82c.81-2.88 7.58-6.86 10.59-8.76A9.73 9.73 0 0 0 87 39.28a5.65 5.65 0 0 0-.39-5.35c-.75-1.15-2.24-2-3.49-1.47a2.46 2.46 0 0 0-1 3.21 3.76 3.76 0 0 0 3 2 8.79 8.79 0 0 0 3.69-.5c4.9-1.54 11.84-3.82 16.79.18 1.85 1.5 1.63 2.82 2.65 5a4.335 4.335 0 0 0 2.88 2.28c5.34 1.25 6.19-2 7.29-3.09 2.75-2.58 4.34-.62 6.38-.75a3.94 3.94 0 0 0 3.92-3.54M70 51.65c3.75.92 8.26 4 11.67 5.08M96.26 115c-3.64-1.47-8.18-6.3-10.82-9.2-2.64-2.9-5.5-5.86-9.22-7.08a2.08 2.08 0 0 0-1.47-.08 1.79 1.79 0 0 0-.71 2.19 3.668 3.668 0 0 0 3.08 2.54 1.363 1.363 0 0 0 1.338-.25 1.371 1.371 0 0 0 .462-1.28c-.114-1.02-.456-2-1-2.87-1.1-1.91-3.08-3.68-5-5.7-2.62-2.82-6.62-7.37-6-10m11.91 27.64c-3.43 1.27-7.16 2.57-7.29 2.39-2.57-3.57-4.91-8.25-7.17-12-1.6-2.65-3.7-5.41-4.66-8.36m33.8-6.84c-.25.25 0 8.41 0 10.72" stroke="#2B1B9E" stroke-width="1.5" stroke-linecap="round" stroke-linejoin="round"/><path d="M112.499 21.13c-2.77 1.26-6 1.07-9 1.06-5.82 0-23.44-.66-38.88 16-3.15 3.39-7.88 8.88-10.06 13-.89 1.67-.92 2.56-.67 3.52.2.72 1.34 1.68 2.24 1a1.239 1.239 0 0 0-.14-2c-2.69-1.78-8.44 5.06-5.73 11.29 2 4.5 5.6 2.32 6.35 1.16a3 3 0 0 0 .54-2 1.7 1.7 0 0 0-1.38-1.45 1.67 1.67 0 0 0-1.67 1.69 2.65 2.65 0 0 0 1.52 2.14c.843.373 1.75.58 2.67.61.917.031 1.825.186 2.7.46a3 3 0 0 1 1.91 1.85c.1.823.377 1.614.81 2.32a2.32 2.32 0 0 0 2.33.38 1.51 1.51 0 0 1 1.9 1.55 88.482 88.482 0 0 1-1 9.54" stroke="#2B1B9E" stroke-width="1.5" stroke-linecap="round" stroke-linejoin="round"/><path d="M107.18 18.07c-22.86-2.88-38.3 4.05-54.07 25.7-1.14 1.56-3 4.23-4.19 6.13-.68 1.14 0 2.34 1.19 2.21.47-.06.74-.57.91-1.17a3.4 3.4 0 0 0-.63-2.88c-2.74-3.7-4.79-16.56-.46-24.49C56.68 11.19 65.84 8.39 71.3 7.19c12.61-2.78 24.07 4.3 27 6.79M89 138.13c2.06 2.87 10.1 6 15.52 5.81.8 0 4.2-.59 4.12-2.33M42.4 169.57c8.69 1.5 18.89-7.4 24.19-12.42C71 153 89.14 137 89.51 137.16m8.49-3.01c3.62 2.56 10.29 3.64 14.25 2.67 0 0 2.37-.84 1.17-2.13m-14.54-4.62c3.89 2.35 6.66 3 11.5 3.12 1.27 0 4.63-.12 4.67-2 0-1.08-1.92-1.79-4-2a39.017 39.017 0 0 1-12-3.37c-2.25-1.07-4.5-2.32-5.12-3.63m.99.35c.74-2.49.1-5.84 1.82-7.79 1.44-1.62 3.31-1.52 9-1.73 2.09-.07 2.4-1.47 4.25-2.45 3.25-1.73 6.84-1.44 10.5-1a3 3 0 0 1 2.5 2.25c.61 1.6 2 1.93 3.72 2.21 1.72.28 4.25 0 5.88.52 3 .91 4.39 4.16 4.25 7.3" stroke="#2B1B9E" stroke-width="1.5" stroke-linecap="round" stroke-linejoin="round"/><path d="M106.55 143.69c1 8.36.87 5.6 1.92 14 .122 1.323.46 2.616 1 3.83 1.34 2.51 4.09 3.48 8.06 3.9 4.264.32 8.511-.804 12.06-3.19 6.06-4.12 4.13-9.31 3.82-11-.65-3.55-4.26-15.27-4.63-18m-13.73-2.54c5.21-2.54 9.08-1.25 11.67.54M111 144.63c2.69-2.25 8.87-6.94 17.25-3m-15.78-28.93c.6 3 1.8 9.08 2.3 11.61a1.34 1.34 0 0 0 1.37 1.08l5.67-.25a1.346 1.346 0 0 0 .998-.51 1.333 1.333 0 0 0 .262-1.09c-.53-2.71-1.64-8.35-2.27-11.1m-14.541 5.48a4.482 4.482 0 0 1-2.15.43c-3.93.11-4.78-1.61-3.33-2.26a10.873 10.873 0 0 1 4.9-.29c1.43.25 1.58 1.58.58 2.12zm20.44-.6c0 .77 0 1.68.68 2.08.31.157.653.236 1 .23 1.31.08 2.62.1 3.93.05m-38.72-30.36c3.78 4.71 3.36 11.76 4 20.83m1.04-23.96c7.651.77 14.101 8.92 17.551 14.17.53.752.79 1.661.74 2.58a1.721 1.721 0 0 1-1.92 1.13 2.57 2.57 0 0 1-1.81-1.48 1.286 1.286 0 0 1-.16-.83c.15-.71 1.12-.87 1.82-.66a4.992 4.992 0 0 1 2.86 2.71A25.912 25.912 0 0 1 119 109m22.779 18.1c-5.91.81-12.29-3-14-.38-1.4 2.1 1.51 3.14 2.5 3.45a39.259 39.259 0 0 0 10.39 2.24m-10.109-1.87c-.84.28-1.74 2.28.52 3.78 2.43 1.62 6.28 1.58 9 2.47" stroke="#2B1B9E" stroke-width="1.5" stroke-linecap="round" stroke-linejoin="round"/><path d="M132.159 138.12c1.14 1.88 7.63 3.51 9.6 2.61 1.97-.9 1.83-2.75 2.3-3.15 2-1.72 1.25-3.71 1.67-4.5a8.11 8.11 0 0 0 1.34-3.16 3.326 3.326 0 0 0-1.1-2.68c.49-.565.806-1.259.91-2 0-1.42-2.18-2.39-3-2.49-4.94-.62-6.33-1.11-8.67-1-1.94.08-2.61 1.75-.31 3.33 1.56 1.08 4 1.42 6.89 2m11.521 41.2c3.19-3.66 3.14-9.2 1.5-13.41-3.06-7.87-6.65-11.34-7.88-18.47m-11.59 7.75c2 5.75 1.73 20.18 2.84 21.67m-47.07-25.5a169.487 169.487 0 0 1-2.17 28M97 138.23a23.1 23.1 0 0 0 13 2.59 2.11 2.11 0 0 0 2.21-1.59m-11.641-31.5l5.67 1.16s-1.51-10.49-3.08-13.24m7.401 63.58c.11-3.38 4-6.82 9.4-8 5.53-1.22 10.66.37 12 3.58M58.6 40a6.66 6.66 0 0 0 1.89 3m27.05-22.29c.75.87 1.46 1.77 2.12 2.7m1.69-3.1l1.58 1.83" stroke="#2B1B9E" stroke-width="1.5" stroke-linecap="round" stroke-linejoin="round"/></svg>