<svg width="31" height="29" fill="none" xmlns="http://www.w3.org/2000/svg"><path d="M31 0c-1.47 4.065-2.205 7.544-2.205 10.435 0 2.62.346 4.743 1.038 6.369C30.61 18.43 31 20.282 31 22.36c0 1.987-.605 3.614-1.816 4.878-1.21 1.175-2.767 1.762-4.67 1.762-4.323 0-6.485-2.62-6.485-7.86 0-3.072.779-6.595 2.335-10.57C21.92 6.505 23.866 2.981 26.201 0H31zM12.97 0c-1.47 4.065-2.204 7.544-2.204 10.435 0 2.62.346 4.743 1.037 6.369.779 1.626 1.168 3.478 1.168 5.556 0 1.987-.606 3.614-1.816 4.878C9.945 28.413 8.388 29 6.485 29 2.162 29 0 26.38 0 21.14c0-3.072.778-6.595 2.335-10.57C3.89 6.505 5.837 2.981 8.172 0h4.799z" fill="url(#paint0_linear)"/><defs><linearGradient id="paint0_linear" x1="6.006" y1="52.256" x2="41.716" y2="43.28" gradientUnits="userSpaceOnUse"><stop stop-color="#A3D7F4"/><stop offset=".217" stop-color="#A2CEF4"/><stop offset=".566" stop-color="#C4D4FF"/><stop offset="1" stop-color="#E2DEFF"/></linearGradient></defs></svg>