<svg width="174" height="174" fill="none" xmlns="http://www.w3.org/2000/svg"><path d="M63.562 40.52c-2.82-1.78-5.56 1.48-4.25 6.38 1.58 5.7 4.42 6.82 6.08 6.65" fill="#fff"/><path d="M63.562 40.52c-2.82-1.78-5.56 1.48-4.25 6.38 1.58 5.7 4.42 6.82 6.08 6.65" stroke="#2B1B9E" stroke-width="1.5" stroke-linecap="round" stroke-linejoin="round"/><path d="M106.131 7.86c-12.87-8.7-26 2.33-31.58 4.67-4.18 1.75-2.14-4.35-7.79-2.6-13.75 4.27-10.67 25.88-4.5 29a.72.72 0 0 0 1-.32c1.43-2.9 5.74-6.76 5.74-6.76 2.046.06 4.094-.058 6.12-.35 17-2.61 22.77-11.17 22.77-11.17a15.866 15.866 0 0 0 2.85 3.8c1 .9 2.52.79 3.13 1.83.61 1.04-.84 5.39.11 9 .48 1.84 1.34 4.93 1.71 6.24.1.38.17.62.17.62s2.55-3.68 4.91-.53c2.7 3.6 4.86-2.31 6.76-6.61 2.29-5.13 1.24-17.68-2.83-21.68a19.642 19.642 0 0 0-8.57-5.14z" fill="#67BAF8"/><path d="M107.051 40.52c2.82-1.78 5.6 1.5 4.25 6.38-1.58 5.7-4.42 6.82-6.08 6.65" fill="#fff"/><path d="M88.59 73.49L80 73.37a10.39 10.39 0 0 0 4.11 1c1.52-.135 3.022-.43 4.48-.88z" fill="#F5F4FE"/><path d="M69.7 81c2.84 5.47 7.13 8.68 16.11 8.68s17.86-5.59 17.86-9.84c0-1.32.15-5.17-3.57-5.55v-8.64a22 22 0 0 1-11.51 7.84c-1.45.459-2.946.764-4.46.91a10.391 10.391 0 0 1-4.11-1 27.54 27.54 0 0 1-7.68-5.59l.27 5.51v.15c-5.1.18-3.61 6.23-2.91 7.53z" fill="#fff"/><path d="M104 35c-1-3.61.54-7.89-.11-9-.65-1.11-2.69-2.38-3.68-3.28a20.303 20.303 0 0 1-2.3-2.35s-5.77 8.52-22.77 11.13c-2.026.292-4.073.41-6.12.35 0 0-4.33 3.86-5.79 6.75l2.62 17.52c0 3.43 2.82 8 6.49 11.66 3.67 3.66 8.33 6.62 11.79 6.62 0 0 10-.65 16-8.75a20.59 20.59 0 0 0 3.16-6.46c.8-2.69 1.68-10.07 2.45-18-.4-1.3-1.26-4.39-1.74-6.19z" fill="#fff"/><path d="M154.62 109.11s-20.05-28-23.92-30.81c-.73-.52-7.43-4.56-11.89-4.89-6-.44-10.19.55-18.71.33v.59c3.72.38 3.57 4.23 3.57 5.55 0 4.25-8.88 9.84-17.86 9.84-8.98 0-13.27-3.21-16.11-8.72-.69-1.34-2.19-7.39 2.91-7.6v-.15c-7.1-.07-10.08-.31-13.43-.09-3.93.31-11.18 1.58-15.18 4.42-2.9 2.08-25.18 31.18-25.18 31.18l12.45 7.83L44 122.73 51 112l.67-9.93a2.783 2.783 0 0 1 .957-1.927 2.793 2.793 0 0 1 2.043-.673c7.24.43 26.57 1.55 31.51 1.6 6 0 25.61-.66 33.55-1a3.25 3.25 0 0 1 2.387.915 3.252 3.252 0 0 1 .993 2.355l.15 8.66 6.68 10.55 24.68-13.44z" fill="#F5F4FE"/><path d="M109.501 74h11.22v29.57a4.313 4.313 0 0 1-1.262 3.048 4.313 4.313 0 0 1-3.048 1.262h-2.7a4.313 4.313 0 0 1-3.048-1.262 4.313 4.313 0 0 1-1.262-3.048V74.14a.098.098 0 0 1-.008-.05.1.1 0 0 1 .108-.09z" fill="#fff"/><path d="M123.17 173l-.17-22.81v-46.85a3.267 3.267 0 0 0-2.093-3.056 3.27 3.27 0 0 0-1.287-.214c-7.94.3-27.53 1-33.55 1-4.94 0-24.27-1.17-31.51-1.6a2.793 2.793 0 0 0-3 2.6L51 112l-2.1 33.7c.37.49-.39 27.3-.39 27.3h74.66z" fill="#fff"/><path d="M66.25 124.87c.22-2.5-.08-8.86.37-9.06.45-.2 40 0 40.23.27.279 7.066.192 14.142-.26 21.2-.16 1.48-.49 6.45-4 7.43a3.77 3.77 0 0 1-4.78-2.14c-.65-1.35.2-2.42 1-2.42a1.803 1.803 0 0 1 1.54 1.31c.49 1.44-1 5.08-5.83 5.08" fill="#A195F9"/><path d="M111.4 153.2l4 3.27s7.11-1.62 7.77-3.58c.66-1.96 1.09-2.19-.36-2.71-1.45-.52-9.89.48-11.41 3.02z" fill="#fff"/><path d="M109.601 152.47c-4-1.6-8.58-3.23-13-5.28-5.06-2.33-9.19-5.87-13-12.23a37.233 37.233 0 0 1-3.86-10c-.44-1.8-1.78-3.92-3.51-4.57a5.128 5.128 0 0 0-3.35 0c-2.9 1.18-3.8 4.8-3.8 4.8l-10.59.32c-1.49.31-3.59 2.96-3.49 4.49l.15 13.8v4.46l.14 22.39s15.7 2.16 18.19-1.53c.52-.77.94-6.46.94-6.46s16.35 6.93 22.11 7.72c12.81 1.77 26.79-2.26 25.52-8.77-.78-4.03-5.89-6.54-12.45-9.14z" fill="#FFB41E"/><path d="M64.21 134.74c-2.67-.3-10.34-2.67-8.87-5.5 2.08-4 9.35-3.46 9.35-3.46 1.9-.17 3.51-1.58 4.84.83a63.308 63.308 0 0 1 3.12 8s-6.3.39-8.44.13z" fill="#fff"/><path d="M69.66 124.35s5 21.57 21.93 30.12c.84.42 12.54 5.16 13.71 5.47 0 0 9-.32 11.29-2.79 1.85-2-6.21-4.42-6.21-4.42s-18.23-6-21.81-10c-3.42-3.84-6.32-11.73-6.32-11.73s-2.85-7.78-4.58-9.51a4.87 4.87 0 0 0-3.85-1 7.352 7.352 0 0 0-4.16 3.86z" fill="#fff"/><path d="M74.85 158.36c-4.32.08-19.72 2.07-19.72 2.07l.16 10.23s15.7 2.16 18.19-1.53c.52-.77.94-6.46.94-6.46s16.35 6.93 22.11 7.72c12.811 1.77 26.791-2.26 25.521-8.77-.35-1.8-11.15 4.95-20.59 4.91-11.79-.05-19.73-8.3-26.61-8.17z" fill="#EFF8FE"/><path d="M21.88 110.93S3 147.78 2.79 151c-.61 9.78 1.44 10.43 8.91 11.25 12.32 1.36 25.18-2.44 31.08.27 4.89 2.25 13.56 5.34 15.68 5.66 4.68.71 12.8-1.62 13.29-4.44.49-2.82.26-10.18-.17-9.87a58.277 58.277 0 0 1-14-1.65A3.635 3.635 0 0 1 55 149.4l.35-5.35s-7.74 3.92-10.08 4c-5.22.1-20.85-2.51-20.85-2.51s15.57-24.29 15.57-24.6c0-.16-4.95-1.77-9.69-4.34a64.878 64.878 0 0 1-8.42-5.67z" fill="#fff"/><path d="M73.17 162.41a56.744 56.744 0 0 1 8.51 2.35c4.95 2.17 7.37 4.86 12.46 5.64 6.29 1 14.53-1 21.65 0m-61.14-2.19c.21.83-.08 1.38.77 1.92a17.581 17.581 0 0 0 7.07 1.18c2.77 0 9.56-.82 11-2.18.41-.39-.24-5.28.76-6m8.91-28.68a11.21 11.21 0 0 0-1.8 3.09 9.998 9.998 0 0 0-1.13 5.62c.063.448.243.872.52 1.23a1.273 1.273 0 0 0 1.19.47c.59-.13.93-.75 1.16-1.31a16.36 16.36 0 0 0 1.13-7.89" stroke="#2B1B9E" stroke-width="1.5" stroke-linecap="round" stroke-linejoin="round"/><path d="M83.9 134.51c6.81 1.68 9.5 5.46 7 6.46-.37.15-2.82-1.2-7-5.39" stroke="#2B1B9E" stroke-width="1.5" stroke-linecap="round" stroke-linejoin="round"/><path d="M72.521 133.94a23.002 23.002 0 0 1-3-7.33 5.291 5.291 0 0 1-.11-2.37 4.524 4.524 0 0 1 1.22-2 5.918 5.918 0 0 1 4.17-2c1.58 0 4.37 1.48 4.65 3 0 0 2 6.72 2.74 8.78 1.3 3.53 3.73 6.52 6.26 9.3a27.002 27.002 0 0 0 4.65 4.28c4.6 3.11 10.6 3.5 15.3 6.46m-105.53-.76c-2.94 7.79 4.51 10.81 7.19 11.21 10.38 1.56 24.63-2.31 30.06-.56m4.69 1.93c.26.31 10.63 4.25 14.58 4.32 3.95.07 4.93-.28 8.74-1.33m-11.66-2.79c4.2 1.5 9.1.1 13.55-.2m-12.8-3.43c5.15 1.05 9.33-1.29 14.53-.59m-12.67-3.23c4 .92 8.61-1 12.67-.31m-1.07-2.77c-6.54-1.23-11.16.31-14.63-2.09a2.842 2.842 0 0 1-1.1-2.85c.78-5.21.08-10.34-.23-15.6-.1-1.76-.23-3.67.74-5.14 1.32-2 4.08-2.38 6.47-2.31 2.39.07 5.12.6 7.14-.69m-25.67-2.55c-2.53 3.9-11.8 22.43-13 23.36-2.95 2.34-7 .84-4.68-1 1.31-1 3.49 0 5.07.52a59.15 59.15 0 0 0 14 2.42c1.54-.14 6.83-3.17 9.12-3.24" stroke="#2B1B9E" stroke-width="1.5" stroke-linecap="round" stroke-linejoin="round"/><path d="M151.05 111.64s19.48 34.18 20 37.4c1.23 7 .55 11.72-6.7 13.68-12 3.24-24.39-3.23-29.8.35a94.395 94.395 0 0 1-15.47 7.57c-3.69 1.16-5.31 1.74-9.32-.4-1.36-.73-1-2.14-1.17-2.16-2-.18-1.5-1.63-1.86-1.82-2.81-1.48-.87-3.43-.87-3.43a2.831 2.831 0 0 1-1.91-1.64c-.7-2.39 10.37-5.13 14.93-7.26a3.626 3.626 0 0 0 2.17-3.22l6.49-.88 19.81-6.4s-13.88-22.1-13.93-22.41c-.05-.31 17.63-9.38 17.63-9.38z" fill="#fff"/><path d="M171.581 150.11c.76 3.66-.16 7.79-2.93 10.29a13.566 13.566 0 0 1-2.91 1.89c-4.24 2.11-11.89-.3-25.78-.17m-6.611 1.33c-.21.34-9.86 5.8-13.74 6.52-3.13.57-4.12 1.19-8.69.82m10.941-5.35c-3.92 2.13-8.31 2.57-12.75 2.95m10.99-5.76c-4.92 1.83-8.28 1.6-13.32 3.09m11.35-6.27c-3.82 1.53-8 1.88-11.93 3.18m13.189-8.95c-2.7 2.41-7 2.65-14.15 5.19M157 142.65c-10.08-.65-23.36 6.66-29.07 7-1.54.09-10-.86-16.53 3.23m20.17-30.99l13.23 22.58" stroke="#2B1B9E" stroke-width="1.5" stroke-linecap="round" stroke-linejoin="round"/><path d="M53.421 74h11.22v29.57a4.312 4.312 0 0 1-4.31 4.31h-2.7a4.31 4.31 0 0 1-4.31-4.31V74.14a.1.1 0 0 1 .1-.14z" fill="#fff"/><path d="M51 102.61c0 3.83-.6 32.5-1.84 40.76m18.381-43.29c3.73 1.34 28.87 1.27 39.33.2m16.259 1.62c-.14 5.95-.64 37.71.05 44.34m-56.93-21.37c.22-2.5-.08-8.86.37-9.06.45-.2 40 0 40.23.27.279 7.066.192 14.142-.26 21.2-.16 1.48-.49 6.45-4 7.43a3.77 3.77 0 0 1-4.78-2.14c-.65-1.35.2-2.42 1-2.42a1.803 1.803 0 0 1 1.54 1.31c.49 1.44-1 5.08-5.83 5.08m-8.02.65c.43-1.36 2.58-3.33 4-3.2m-.01 6.19c.17-1.69 2-3.61 3.65-3.64m-29.5-72.65v28.36a5.651 5.651 0 0 1-5.64 5.66 5.655 5.655 0 0 1-4.005-1.655 5.645 5.645 0 0 1-1.655-4.005V78.51" stroke="#2B1B9E" stroke-width="1.5" stroke-linecap="round" stroke-linejoin="round"/><path d="M50.7 112.16L44 122.73c-17.18-6-25.18-14-25.18-14S29.66 95 35.58 86.74c5.11-7.12 9.67-11.3 16.64-13 4.76-1.14 16.67-.11 19.86-.7m51.1 39.47l6.27 10.22c16.47-7.06 25.17-14 25.17-14S143.8 95 137.88 86.74c-5.11-7.12-9.67-11.3-16.64-13-4.76-1.14-20.84-.47-20.84-.47m-77.98 39.14c-2.3 4.41-15 26.21-17.49 32.45m53.781-40.83a2.01 2.01 0 1 0 0-4.02 2.01 2.01 0 0 0 0 4.02z" stroke="#2B1B9E" stroke-width="1.5" stroke-linecap="round" stroke-linejoin="round"/><path d="M120.711 74.71v27.54a5.66 5.66 0 0 1-1.655 4.005 5.655 5.655 0 0 1-4.005 1.655 5.66 5.66 0 0 1-5.66-5.66V78.51" stroke="#2B1B9E" stroke-width="1.5" stroke-linecap="round" stroke-linejoin="round"/><path d="M114.791 104.03a2.01 2.01 0 1 0 0-4.02 2.01 2.01 0 0 0 0 4.02zm36.33 7.39l18.64 33.57m-95.02 13.53c4.23.35 8.39 1.31 11.76 3.89 5.93 4.52 16.619 4.61 18.739 4.13M94.74 152a4.997 4.997 0 0 1 3.14-3.64M83.54 49c0 2-.21 3.84-.22 5.81 0 .9.13 2 1 2.36.823.137 1.656.204 2.49.2m-6.27 6.12c.41 2.11 1.8 3.26 5.09 3.26 3.8 0 5.63-3.32 6.51-5.77a30.49 30.49 0 0 1-13.09.21" stroke="#2B1B9E" stroke-width="1.5" stroke-linecap="round" stroke-linejoin="round"/><path d="M63 39.22c2.87 9.16.87 11.26 3.66 19.45 2 6 8.73 15.89 18.74 15.34 9.44-.51 17.36-9.33 18.82-18.41 1.19-7.41 1.09-11.77 2-13.76.194-.499.494-.95.88-1.32 2.66-2 5.6 1.5 4.25 6.38-1.58 5.7-4.42 6.82-6.08 6.65" stroke="#2B1B9E" stroke-width="1.5" stroke-linecap="round" stroke-linejoin="round"/><path d="M90 40.73a4.25 4.25 0 0 1 5.37.56m-22.07-.37c1.68-1.08 3.93-1.19 5.27.29m25.201 35.6c.41 4.48-1.09 12.38-17 12.9-7.32.23-18-3-17.7-13m31.13-11.6c-.25 2.18 0 5.74.06 12.55m-27.46-8.87c-.1.57.14 5 0 10.29m25.59-59.57c-.67 1.62-3.82 4.64-9.8 7.94-4.87 2.69-13 5-18.5 4.62-3.89-.27-3.35-4.28-3.36-5-.01-.72 1.19-2.15 2-.42.62 1.24.78 7.47-3.68 9.55m40.17 2.01c-2.12-3.2-1.18-6.28-1.17-9.32 0-1.78-.21-3.11-1.17-3.51" stroke="#2B1B9E" stroke-width="1.5" stroke-linecap="round" stroke-linejoin="round"/><path d="M74.851 51c-.45-2-.13-4.91.69-5.85a1.27 1.27 0 0 1 2 .24 5.55 5.55 0 0 1 .52 2.94 6.799 6.799 0 0 1-.49 3.67 1.359 1.359 0 0 1-1.07.5 1.75 1.75 0 0 1-1.65-1.5zm15.76 0c-.45-2-.12-4.91.69-5.85a1.27 1.27 0 0 1 2 .24c.44.57.48 1.55.53 2.94a6.89 6.89 0 0 1-.5 3.67 1.34 1.34 0 0 1-1.06.5 1.76 1.76 0 0 1-1.66-1.5z" fill="#2B1B9E"/><path d="M86.281 13.94a43.6 43.6 0 0 0 4.52-1.77 12.621 12.621 0 0 1 4.69-1.17 5.6 5.6 0 0 1 4.34 1.82M94 7.19a5.58 5.58 0 0 1 5 1.58M26.71 109.43c5.11 3.47 11 7 17 8.69m86.29-.6a149.864 149.864 0 0 0 18.07-10" stroke="#2B1B9E" stroke-width="1.5" stroke-linecap="round" stroke-linejoin="round"/></svg>