<svg fill="none" height="496" width="496" xmlns="http://www.w3.org/2000/svg"><path d="m174.63 452.33s21.7-27.48 7.54-52c-19.4-33.58 85.16-32.33 85.16-32.33" stroke="#67baf8" stroke-linecap="round" stroke-linejoin="round" stroke-width="5"/><path d="m421.9 336.46h-2.94v3.13h2.94zm6.49 3.71h-16.62v10.59h16.62z" fill="#fff"/><path d="m463.24 296.21h-45.53v8l1.2-.05c2.58 0 8.31 2.23 12.77 4 4.85 1.94 10.43 3.39 15.3 5.35 3.13 1.25 10.41 4.11 11.39 7.34 2 6.45 5.41 40.65 6 47.26.1 1.12-.13 5.09-.66 6.08-1 1.77-3.16 4.1-8.21 5.07 10.69 0 19.5 0 19.59.09v-71.28a11.86 11.86 0 0 0 -11.85-11.86z" fill="#67baf8"/><path d="m464.38 368.15c-.6-6.61-4.05-40.81-6-47.26-1-3.23-8.26-6.09-11.39-7.34-4.87-2-10.45-3.41-15.3-5.35-4.46-1.78-10.19-4-12.77-4l-1.87.06-21.88 1c-3.29 1.58-19.58 8-26.05 10.89-3.68 1.63-5.66 5.81-6.48 9.75-2.84 13.6-9.49 45.53-11 49.28l54.52.49.51 3.88 44.62.17a26.343 26.343 0 0 0 4.22-.44c5.05-1 7.25-3.3 8.21-5.07.53-.97.76-4.94.66-6.06z" fill="#fff"/><path d="m407.52 303.81a18.18 18.18 0 0 1 -13.88.23l.21 8.31 9.88 14.23 13.41-14.84.67-22.8c-.484.27-.989.501-1.51.69 0 0-3.55 11.9-8.78 14.18z" fill="#fff"/><path d="m388.34 367.38c1.16-2.19 6.63-13.72 8.49-17.65.27-.56 1.21-2.45-.17-3.21-1.09-.61-1.73 0-2.45 1.29-.93 1.67-7.95 16.83-10.32 22l-.27 2.39a.623.623 0 0 0 .38.64l.13.06a.571.571 0 0 0 .64-.1l2-1.88z" fill="#ffb41e"/><path d="m383.14 375 .43-.88" stroke="#ffb41e" stroke-linecap="round" stroke-linejoin="round" stroke-width="1.5"/><path d="m396.75 347.88a.82.82 0 0 1 -1 .2.843.843 0 0 1 -.432-.477.834.834 0 0 1 .032-.643l.64-1.32a.835.835 0 0 1 .813-.549.839.839 0 0 1 .697 1.269l-.64 1.33a.613.613 0 0 1 -.11.19z" fill="#ffb41e"/><path d="m387.01 366.05.86-1.85" stroke="#2b1b9e" stroke-linecap="round" stroke-linejoin="round" stroke-width="1.5"/><path d="m382 369.46s10-6.2 15.24-5.44 13 2.27 13 2.27l.05 10.46c-2.781.539-5.593.9-8.42 1.08-4.13-.15-17-2.58-17-2.58z" fill="#fff"/><path d="m417.66 290.8c-.19 1.68-.41 12.3-.4 17.56m-30.62.64c-3.29 1.58-10.19 3.61-16.66 6.48a12.466 12.466 0 0 0 -7.15 8.85c-2.84 13.6-9.49 45.07-11 48.83m42.17-66.02c-.08.44-.08 1.15-.18 5.21a2.405 2.405 0 0 1 -2.25 2.1c-1.35 0-2.74-.6-2.17-2 .4-1 2.52-.9 3.78-.08s8.72 12.1 8.72 12.1m-18.3-9.6 10.51 18.71 7.11-6.5m25.35-12.21-12.36 18.71-7.11-6.5m12.38-22.37c2.58 0 6.36 1.45 10.82 3.23 4.85 1.93 18 5.8 22.85 7.76a9.827 9.827 0 0 1 6 7.33c.5 2.76 1.12 6 1.57 7.94" stroke="#2b1b9e" stroke-linecap="round" stroke-linejoin="round" stroke-width="1.5"/><path d="m404.16 349.58c.28-1.06-.47-16.84-.6-20a5.483 5.483 0 0 1 .05-1 5.55 5.55 0 0 1 1.67-3.36c3.1-2.89 12.81-14.26 15-16.46" stroke="#2b1b9e" stroke-linecap="round" stroke-linejoin="round" stroke-width="1.5"/><path d="m423.26 279.13c0-.18-.05-.36-.08-.54-.44-.87-1.44-2.66-2.16-3s-3.28.54-3.28.54c-.79-.35-5.09-.88-7.27-3-2-1.91-.22-10.92-5.68-10.45-2.56.21-8.47 4.69-14.29 3.07-.24-.06-3.52 8.13-9.83 7.66-.17 0-.35 0-.54-.07 1.71 8.24 5.21 23.77 7.74 26.59a15.839 15.839 0 0 0 5.77 4.11 18.18 18.18 0 0 0 13.88-.23c5.23-2.28 8.78-14.18 8.78-14.18.521-.189 1.026-.42 1.51-.69a9.806 9.806 0 0 0 5.45-9.81z" fill="#fff"/><path d="m426.43 257.11c-3-2.79 3.13-4.45 1.14-9.7-1.07-2.8-5.43-6.47-11.72-5.62-4.19.56-10.22.15-12.82-1.75-2.15-1.57-3.28-4.84-6.86-5.43-2.62-.43-7.06.37-8.14 3.74-1.61 5-3.51 4.71-6.67 4.36-1.62-.17-6.93-2.06-10.43 3.88-3.05 5.19-.06 8.06.63 8.88 2.44 2.9-2.63 3.69-1.54 10.38.62 3.74 5.57 8.16 10.65 7.56 6.29-.74 9.59-7.72 9.83-7.66 5.82 1.62 11.73-2.86 14.29-3.07 5.46-.47 3.75 7.16 5.33 9.79.46.76.5 2.4 7.94 3.76 0 0 2.17-.89 3-.61 2.23.8 2.4 3.45 2.4 3.45.25-3.2 6.51-7.05 7.61-12.56.57-3.06-.74-5.77-4.64-9.4z" fill="#a195f9"/><path d="m387.44 284.8c-.6-1.73-.6-4.29 0-5.19a1.116 1.116 0 0 1 .905-.46 1.125 1.125 0 0 1 .905.46c.478.755.738 1.627.75 2.52a6.002 6.002 0 0 1 -.1 3.25 1.214 1.214 0 0 1 -.89.55 1.53 1.53 0 0 1 -1.57-1.13zm12.28-1.04c-.49-1.76-.34-4.31.33-5.18.114-.134.258-.24.421-.308a1.117 1.117 0 0 1 1.013.067c.152.089.28.213.376.361.433.781.641 1.668.6 2.56a6.006 6.006 0 0 1 -.3 3.25 1.193 1.193 0 0 1 -.92.49 1.537 1.537 0 0 1 -1.52-1.24z" fill="#2b1b9e"/><path d="m394.46 284.06c0 1.52-.21 3-.24 4.48 0 .69.06 1.55.7 1.83.634.115 1.276.175 1.92.18" stroke="#2b1b9e" stroke-linecap="round" stroke-linejoin="round" stroke-width="1.5"/><path d="m380.42 273.79c2.6 6.93 2.45 17 5.49 23 2.76 5.4 7.7 9.74 15.39 8.89 7.25-.81 11.73-5.14 13.56-12.32m-16-17.36a3.285 3.285 0 0 1 4.16.2" stroke="#2b1b9e" stroke-linecap="round" stroke-linejoin="round" stroke-width="1.5"/><path d="m385.79 277.35a3.152 3.152 0 0 1 4.06-.24m3.31 16.77a9.435 9.435 0 0 0 10-.44m14.36-16.82s2.72-2.43 4.73.32.88 10.42-4.51 11m-43.03-16.55c5 4.69 12.28-.85 14.08-3s2.95-3.93 2.44-6.7c-.32-1.71-1.68-3.13-2.69-1.52-.65 1 0 3.52.89 4.37 5.13 4.86 15-4 18.43-1 2.8 2.46-1.71 10.48 7.67 11.77m-8.1-33.97c2.05.66 4.27.39 6.42.25 3.43-.22 7.06 0 10 1.73s4.94 5.53 3.7 8.74c-.52 1.34-1.56 2.61-1.34 4s1.62 2.31 2.61 3.37a8.142 8.142 0 0 1 1.84 6.93 12.129 12.129 0 0 1 -3.59 6.38 21.307 21.307 0 0 0 -3 3.08m-51.72 96.4s1.26-35.68.5-37.71m88.9 1.49 2.25 27.25a16.175 16.175 0 0 1 -.93 7.13c-.7 1.86-2.93 2.14-3.46.32-.63-2.19 3.29-2.59 4.52-1.65 1.64 1.27.48 5.93-1.54 6.88m-22.78-42.01c0 .63 1.26 28 1.26 28l-30.64 3.71s-1.25 7.24 0 11.77" stroke="#2b1b9e" stroke-linecap="round" stroke-linejoin="round" stroke-width="1.5"/><path d="m383 368.8c2.54-1.7 9.11-4.33 11.39-4.55 4-.38 14.19 1.58 16 2.21m-27.73 5.44s8.31-3.56 10.78-3.18m-8.78 5.06 9.87-1.81m28.75-76.52h40a11.85 11.85 0 0 1 11.85 11.86v58.58" stroke="#2b1b9e" stroke-linecap="round" stroke-linejoin="round" stroke-width="1.5"/><path d="m466.62 301.74a6.277 6.277 0 0 1 2.91 4.93v66.56m-97.79-117.37a8.25 8.25 0 0 1 -.21-10.47 8.21 8.21 0 0 1 5.38-3.13c1.88-.21 4.57 0 6.31 2.06a1.264 1.264 0 0 1 .244 1.418 1.262 1.262 0 0 1 -1.244.722c-1.72-.21-.86-2.82-.4-3.29a2.522 2.522 0 0 1 1.79-.63c2.36-.11 4.61-2.78 4.62-3.72" stroke="#2b1b9e" stroke-linecap="round" stroke-linejoin="round" stroke-width="1.5"/><path d="m429.91 342.17h-16.09a1.94 1.94 0 0 0 -1.94 1.94v11.61a1.94 1.94 0 0 0 1.94 1.94h16.09a1.94 1.94 0 0 0 1.94-1.94v-11.61a1.94 1.94 0 0 0 -1.94-1.94z" fill="#a195f9"/><path d="m425.8 344.77a4.272 4.272 0 0 0 -2.62-.47c-2.38.3-3.67 2.24-3.82 5.77h1.64c.07-1.78.45-3 1.16-3.59a2.472 2.472 0 0 1 1.91-.56 1.864 1.864 0 0 1 1.51.94 1.999 1.999 0 0 1 .06 1.86c-.72 1.49-2.46 1.72-4.07 1.75h-2.87a3.25 3.25 0 0 0 -2.7 1.33 2.614 2.614 0 0 0 .26 2.87 2.541 2.541 0 0 0 1.93.87c.318-.002.632-.06.93-.17a3.106 3.106 0 0 0 1.91-2.9h-1.67c-.07.47-.32 1.53-1.29 1.41a.827.827 0 0 1 -.66-.5.753.753 0 0 1 .05-.78c.22-.33.75-.5 1.63-.53h2.62a8.257 8.257 0 0 0 3.34-.62 4.495 4.495 0 0 0 2.06-1.86c.468-.83.59-1.811.34-2.73a3.364 3.364 0 0 0 -1.61-2.09" fill="#fff"/><path d="m420.22 341.71v-2.39a1.368 1.368 0 0 1 1.38-1.32h.77a1.376 1.376 0 0 1 .975.398c.128.127.23.279.3.445.069.167.105.346.105.527v2.39m-9.59.41h15.68m-12.91 24.45s-2.69 5.82-.19 11.19" stroke="#2b1b9e" stroke-linecap="round" stroke-linejoin="round" stroke-width="1.5"/><path d="m263.77 350h-42.51a4.9 4.9 0 0 1 -4.9-4.9v-91.48a4.9 4.9 0 0 1 4.9-4.9h119.74a4.9 4.9 0 0 1 4.9 4.9v91.43a4.894 4.894 0 0 1 -4.9 4.95h-35.21" fill="#eff8fe"/><path d="m290.76 379.48h-35.18a3.335 3.335 0 0 1 -2.453-1.076 3.325 3.325 0 0 1 -.867-2.534l4.14-49.67a4.74 4.74 0 0 1 4.73-4.43h22.78a4.741 4.741 0 0 1 4.71 4.31l5.45 49.71c.051.465.003.935-.141 1.38a3.319 3.319 0 0 1 -1.812 2.021c-.427.19-.889.289-1.357.289z" fill="#eff8fe"/><path d="m404.65 375.38h-77.32a1.99 1.99 0 0 0 -1.99 1.99v.2a1.99 1.99 0 0 0 1.99 1.99h77.32a1.99 1.99 0 0 0 1.99-1.99v-.2a1.99 1.99 0 0 0 -1.99-1.99z" fill="#a195f9"/><path d="m404.65 375.38h-77.32a1.99 1.99 0 0 0 -1.99 1.99v.2a1.99 1.99 0 0 0 1.99 1.99h77.32a1.99 1.99 0 0 0 1.99-1.99v-.2a1.99 1.99 0 0 0 -1.99-1.99zm-188.29-98.38v-23.38a4.9 4.9 0 0 1 4.9-4.9h119.74a4.9 4.9 0 0 1 4.9 4.9v91.43a4.894 4.894 0 0 1 -4.9 4.95h-44.07m-45.05 0h-30.62a4.9 4.9 0 0 1 -4.9-4.9v-56.98m39.49-34.34h29.35m28.28 86.1v2.7m5.06-2.7v2.7m5.06-2.7v2.7m-66.15 36.98h216.13" stroke="#2b1b9e" stroke-linecap="round" stroke-linejoin="round" stroke-width="1.5"/><path d="m290.76 379.48h-35.18a3.335 3.335 0 0 1 -2.453-1.076 3.325 3.325 0 0 1 -.867-2.534l4.14-49.67a4.74 4.74 0 0 1 4.73-4.43h22.78a4.741 4.741 0 0 1 4.71 4.31l5.45 49.71c.051.465.003.935-.141 1.38a3.319 3.319 0 0 1 -1.812 2.021c-.427.19-.889.289-1.357.289zm49.95-123.67v86.21m-17-.08c2 2 5.27 6.09 6.18 8.79 5.82 17.21-16.13 18.82-20.81 17.14-3.44-1.24.08-3.72 2.57-2.54 8.47 4-15.82 8.07 13.62 12.29" stroke="#2b1b9e" stroke-linecap="round" stroke-linejoin="round" stroke-width="1.5"/><path d="m92.3 381.51h-54.03v45.65h54.03zm-51.41 45.84h46.75a4.128 4.128 0 0 1 4.13 4.13v29.84h-55v-29.83a4.14 4.14 0 0 1 4.12-4.14z" fill="#fff"/><path d="m80.64 427h-31.54a2.518 2.518 0 0 1 -2.52-2.52l.13-2.69c0-8.39 3.23-14.5 11.62-14.5h9.67c8.39 0 15.17 2.28 15.17 10.67v6.52a2.522 2.522 0 0 1 -2.53 2.52z" fill="#ffb41e"/><path d="m49.72 415.65a2.323 2.323 0 0 0 1.43-.85c.334-.445.579-.951.72-1.49a2.868 2.868 0 0 0 1.93 2.2s-1.78.81-1.93 2.15a6.41 6.41 0 0 0 -.74-1.16 3.476 3.476 0 0 0 -1.41-.85z" fill="#fff"/><path d="m47.2 415.3a11.277 11.277 0 0 1 9.87-8.05" stroke="#2b1b9e" stroke-linecap="round" stroke-linejoin="round" stroke-width="1.5"/><path d="m72.47 421.71a2.34 2.34 0 0 0 1.42-.85c.334-.445.579-.951.72-1.49a2.862 2.862 0 0 0 1.94 2.2s-1.78.81-1.94 2.15a6.41 6.41 0 0 0 -.74-1.16 3.539 3.539 0 0 0 -1.4-.85zm5.35-6.06a2.323 2.323 0 0 0 1.43-.85c.33-.448.575-.953.72-1.49a2.868 2.868 0 0 0 1.93 2.2s-1.78.81-1.93 2.15a6.115 6.115 0 0 0 -.75-1.16 3.464 3.464 0 0 0 -1.4-.85zm-14.05 0a2.322 2.322 0 0 0 1.43-.85c.33-.448.575-.953.72-1.49a2.87 2.87 0 0 0 1.93 2.2s-1.78.81-1.93 2.15a6.105 6.105 0 0 0 -.75-1.16 3.463 3.463 0 0 0 -1.4-.85zm-8.47 6.97a2.353 2.353 0 0 0 1.43-.85c.327-.45.57-.955.72-1.49 0 .82.88 1.78 1.93 2.2 0 0-1.78.81-1.93 2.15a6.115 6.115 0 0 0 -.75-1.16 3.54 3.54 0 0 0 -1.4-.85z" fill="#fff"/><path d="m46.57 423.67a8.612 8.612 0 0 0 .06 2.22 2.092 2.092 0 0 0 2 1.11h33c1.5-.43 1.66-1.57 1.7-3.07.08-3.42 0-8-1.23-10.62a10.209 10.209 0 0 0 -6.76-5.56" stroke="#2b1b9e" stroke-linecap="round" stroke-linejoin="round" stroke-width="1.5"/><path d="m69.29 398.56c-1.26-.42-9.29-.36-11.14 4.84-1.77 5-.83 8.13-.83 8.13a1.8 1.8 0 0 0 1.16 1.88 1.839 1.839 0 0 0 1.913-.977c.116-.228.183-.478.197-.733l-.09-5.43c0-1.87 1.6-4.27 3.44-4.6a9.727 9.727 0 0 1 4-.21c2.37.64 3.47 2.32 3.47 3.62l.06 6.62a1.778 1.778 0 0 0 3.003 1.131c.325-.311.52-.733.547-1.181l-.07-6.34c-.3-2.87-1.46-5.31-5.66-6.75z" fill="#fff7e8"/><path d="m60.48 412c.15-.73 0-3.42 0-5.67.07-2 1.47-4.92 5.62-4.95s5.29 2.19 5.33 4.09v4.66a4.09 4.09 0 0 0 .44 2.61s.64.83 1.27.71" stroke="#2b1b9e" stroke-linecap="round" stroke-linejoin="round" stroke-width="1.5"/><path d="m74.76 411.69c.09-1.24.06-4.43 0-4.95-.07-4.93-2.06-8.05-8.1-8.25-5.08-.17-7.36 2.21-8.54 4.81s-1.12 5.7-.88 8.7a1.002 1.002 0 0 0 .69 1m-20.99 25v-8.53a2.278 2.278 0 0 1 2.29-2.29h50.24a2.28 2.28 0 0 1 2.29 2.29v30.32m-54.82-.55v-18.12m23.69-33.7h8.54m23.05-17.96v11.84m-7.16-19.77h7.36m-35.51 0h15.62m-34.34 43.01v-43.01h6.65" stroke="#2b1b9e" stroke-linecap="round" stroke-linejoin="round" stroke-width="1.5"/><path d="m52.8 380.12v-2.12a1.079 1.079 0 0 0 -1.07-1.08h-1.18a1.079 1.079 0 0 0 -1.07 1.08v2.16h-1a1.841 1.841 0 0 0 -1.268 3.148 1.85 1.85 0 0 0 1.308.542h5.24a1.842 1.842 0 0 0 1.84-1.85 1.84 1.84 0 0 0 -1.84-1.84zm27.88 0v-2.12a1.079 1.079 0 0 0 -1.07-1.08h-1.18a1.079 1.079 0 0 0 -1.07 1.08v2.16h-1a1.841 1.841 0 0 0 -1.268 3.148 1.85 1.85 0 0 0 1.308.542h5.24a1.842 1.842 0 0 0 1.84-1.85 1.84 1.84 0 0 0 -1.84-1.84z" fill="#67baf8"/><path d="m49.17 382.13h3.92m23.61.07h4.63" stroke="#2b1b9e" stroke-linecap="round" stroke-linejoin="round" stroke-width="1.5"/><path d="m171.77 215.04h-63.9a3.48 3.48 0 0 0 -3.48 3.48v59.47a3.48 3.48 0 0 0 3.48 3.48h63.9a3.48 3.48 0 0 0 3.48-3.48v-59.47a3.48 3.48 0 0 0 -3.48-3.48z" fill="#f5f4fe"/><path d="m170.69 249.67a4.75 4.75 0 0 0 -.86-1c.322.384.545.84.65 1.33.21 1 .55 3.47-8 5.76a93.337 93.337 0 0 1 -22.14 2c-7.76-.24-16.29-3.27-22.2-4.45-4.7-.93-7.68.06-7.7-.81.08 3.54-2 6.3 1 7.82 3.49 1.8 10.36 2.12 14.9 2.22 24.86.56 40.26-2.65 42.62-3.67 6.61-2.87 1.87-8.97 1.73-9.2zm-61.85-10.02v-.75c-.02.23-.02.48 0 .75zm.59 3.55c-.05-.24-.09-.45-.13-.61.04.16.08.41.13.61zm.78 5.35c-.08-.76-.17-1.48-.26-2.15.05.67.18 1.39.26 2.15z" fill="#fff"/><path d="m108.82 238.9v-.66c.02.21 0 .42 0 .66zm46.18 6.81c4 .2 11.62 0 14.83 3-2.48-3.14-10.94-2.8-14.83-3zm-28.7-9.07h.77c-.24-.02-.5-.02-.77 0z" fill="#a195f9"/><path d="m118.16 253.34c5.91 1.18 14.44 4.21 22.2 4.45a93.285 93.285 0 0 0 22.14-2c8.53-2.29 8.19-4.72 8-5.76a3.07 3.07 0 0 0 -.65-1.33c-3.21-2.92-10.86-2.77-14.83-3-9.5-.48-16.3-5-21.09-13.18a2.47 2.47 0 0 0 -1-1 3.463 3.463 0 0 0 -.91-.29 4.005 4.005 0 0 0 -.49 0 5.67 5.67 0 0 0 -1.48.15 5.976 5.976 0 0 0 -.9.3 2.68 2.68 0 0 0 -1.41 1.07 1.718 1.718 0 0 0 -.13.81c.059.687.22 1.361.48 2 .162.426.345.843.55 1.25a8.877 8.877 0 0 0 -1.5-.14h-.77a6.124 6.124 0 0 0 -.83.12 4.037 4.037 0 0 0 -.82.24 3.336 3.336 0 0 0 -1.08.66c-.62.59-1.35 1.38-2.17 2.1a10.74 10.74 0 0 1 -1.27 1 4.916 4.916 0 0 1 -1.85.79 3.22 3.22 0 0 1 -1.48-.06c-2.78-.79-2.32-6.38-5.69-5.92h-.23a2.63 2.63 0 0 0 -.74.26 2.156 2.156 0 0 0 -.7.63 3.569 3.569 0 0 0 -.58 1.76v1.41c.072.991.226 1.975.46 2.94 0 .16.08.37.13.61a45.228 45.228 0 0 1 .43 2.55l.09.65c.09.67.18 1.39.26 2.15.05.5.09 1 .13 1.55.06.8.1 1.61.12 2.43-.07.86 2.91-.13 7.61.8z" fill="#a195f9"/><path d="m172 251.35a5.863 5.863 0 0 1 -.46 5.26c-3.32 4.64-18.77 5.53-26.29 5.86-9.26.41-32.12.38-34.72-2.85a4.38 4.38 0 0 1 -.59-3.51 28.95 28.95 0 0 0 .49-7.28c-.35-2.7-.75-5.53-1.31-8.2-.34-1.57-.69-3.3.72-4.49a2.75 2.75 0 0 1 2.45-.55c3 .83 1.72 5.37 4.3 6.19a2.866 2.866 0 0 0 2.17-.39c2-1.08 3.42-3 5.42-4.09a7.241 7.241 0 0 1 8.93 1.78c.374.426.596.964.63 1.53 0 .52-.46 1.53-1.79.34a19.277 19.277 0 0 1 -3.59-4.84 4.241 4.241 0 0 1 -.77-2.66c.19-1.28 1.52-2 2.79-2.24 3.59-.59 5.19 3.72 6 4.73a27 27 0 0 0 17.79 9.74c5 .63 11.28.21 14.4 1.78a3 3 0 0 1 1.94 3c-.1 1.81-1.43 3.12-3.92 4-8.23 2.74-18.78 3.53-25.7 3.21a66.411 66.411 0 0 1 -13.89-2c-4.55-1.09-8.9-3.6-13.16-2.67" stroke="#2b1b9e" stroke-linecap="round" stroke-linejoin="round" stroke-width="1.5"/><path d="m134.64 244.57a10.886 10.886 0 0 0 .15 4.68 2.193 2.193 0 0 1 -.14 1.54 1.271 1.271 0 0 1 -1.35.46 1.622 1.622 0 0 1 -1-1 1.059 1.059 0 0 1 -.05-.68c.06-.168.156-.322.28-.45a10.062 10.062 0 0 1 2.54-1.64 3.24 3.24 0 0 0 1.84-2.27.852.852 0 0 0 -.07-.5 1.403 1.403 0 0 0 -.57-.56 1.13 1.13 0 0 0 -1.329.059 1.14 1.14 0 0 0 -.301.361zm40.61 23.8v9.63" stroke="#2b1b9e" stroke-linecap="round" stroke-linejoin="round" stroke-width="1.5"/><path d="m175.25 278c0 .923-.367 1.808-1.019 2.461a3.484 3.484 0 0 1 -2.461 1.019h-63.9a3.478 3.478 0 0 1 -3.48-3.48v-59.48a3.482 3.482 0 0 1 3.48-3.48h63.9c.923 0 1.808.367 2.461 1.019a3.484 3.484 0 0 1 1.019 2.461v43.86" stroke="#2b1b9e" stroke-linecap="round" stroke-linejoin="round" stroke-width="1.5"/><path d="m109.57 221.03a1.47 1.47 0 1 0 0-2.94 1.47 1.47 0 0 0 0 2.94zm5.87 0a1.47 1.47 0 1 0 0-2.94 1.47 1.47 0 0 0 0 2.94z" fill="#2b1b9e"/><path d="m33.3 146.77c4.53-35.47 29.55-52.77 53.7-62.36 29-11.41 62.58-5.31 56.32-38.72" stroke="#fe585a" stroke-linecap="round" stroke-linejoin="round" stroke-width="5"/><path d="m273 161a3.722 3.722 0 0 1 -3.72 3.71h-115.28a3.707 3.707 0 0 1 -3.71-3.71 3.721 3.721 0 0 1 3.71-3.72l119.94-4z" fill="#fff"/><path d="m265.27 164.79h77.3m-140.76-.22h12.85" stroke="#2b1b9e" stroke-linecap="round" stroke-linejoin="round" stroke-width="1.5"/><path d="m203.79 92.2h79.28a4.087 4.087 0 0 1 3.988 3.291 4.096 4.096 0 0 1 -.058 1.85l-13.79 58.999a4.091 4.091 0 0 1 -3.94 3h-84.33a4.074 4.074 0 0 1 -3.216-1.527 4.069 4.069 0 0 1 -.784-3.473l18.85-59a4.079 4.079 0 0 1 4-3.14z" fill="#fff"/><path d="m189.43 151.81 15.64-52.98 74.2.08-12.39 53.12z" fill="#eff8fe"/><path d="m274.87 119.44-7.99 32.59h-77.63l15.21-50.4" stroke="#2b1b9e" stroke-linecap="round" stroke-linejoin="round" stroke-width="1.5"/><path d="m273.22 156.37 13.79-59a4.091 4.091 0 0 0 -3.94-5.14h-79.76a4.079 4.079 0 0 0 -4 3.11l-17.18 56.15m96.4-52.29-65-.22" stroke="#2b1b9e" stroke-linecap="round" stroke-linejoin="round" stroke-width="1.5"/><path d="m243.06 96.64a1.14 1.14 0 1 0 0-2.28 1.14 1.14 0 0 0 0 2.28z" fill="#2b1b9e"/><path d="m273 161a3.722 3.722 0 0 1 -3.72 3.71h-115.28a3.707 3.707 0 0 1 -3.71-3.71 3.721 3.721 0 0 1 3.71-3.72h115.32" stroke="#2b1b9e" stroke-linecap="round" stroke-linejoin="round" stroke-width="1.5"/><path d="m260.41 144.94-60.89-.11a2.6 2.6 0 0 1 -2.65-3.35l9.18-32.58a4.565 4.565 0 0 1 4.27-3.33l59.62-.1a2.604 2.604 0 0 1 2.726 2.108 2.6 2.6 0 0 1 -.066 1.242l-7.92 32.78a4.578 4.578 0 0 1 -4.27 3.34z" fill="#fff"/><path d="m258 141.91h-19a3.197 3.197 0 0 1 -3.346-2.587 3.193 3.193 0 0 1 .076-1.523l.79-3.25a5.639 5.639 0 0 1 5.24-4.1h19a3.17 3.17 0 0 1 1.504.263 3.17 3.17 0 0 1 1.843 2.322 3.19 3.19 0 0 1 -.087 1.525l-.78 3.25a5.651 5.651 0 0 1 -5.24 4.1z" fill="#ffb41e"/><path d="m243.34 133.5a3.004 3.004 0 0 0 -2.59.71.998.998 0 0 0 -.07 1.41c.46.43 1.57.23 2.14.52.72.38.62 1.72-.85 2a3.292 3.292 0 0 1 -2.15-.22m2.85-5.85c-.13.46-.2.71-.34 1.18m-1.05 5.25-.28 1" stroke="#2b1b9e" stroke-linecap="round" stroke-linejoin="round" stroke-width="1.5"/><path d="m220.39 109.42a3.862 3.862 0 0 0 -2.47-.45c-2.41.28-4.11 2.12-5.06 5.45h1.64a6.001 6.001 0 0 1 2-3.39 3.003 3.003 0 0 1 2-.53 1.376 1.376 0 0 1 1.27.9 1.935 1.935 0 0 1 -.37 1.76c-1 1.41-2.81 1.62-4.39 1.65h-2.87a4.15 4.15 0 0 0 -3 1.23 2.438 2.438 0 0 0 -.41 2.72 2.004 2.004 0 0 0 1.7.82c.339.003.677-.048 1-.15a4.1 4.1 0 0 0 2.54-2.75h-1.64c-.17.43-.66 1.44-1.59 1.33a.623.623 0 0 1 -.54-.48.834.834 0 0 1 .24-.74 2.512 2.512 0 0 1 1.72-.49h2.57a9.53 9.53 0 0 0 3.41-.58 6.084 6.084 0 0 0 2.45-1.76 3.877 3.877 0 0 0 1-2.57 2.39 2.39 0 0 0 -1.1-2" fill="#ffb41e"/><path d="m198.6 135.37 8.4-28.15a2.438 2.438 0 0 1 2.27-1.77l62.23.12a1.382 1.382 0 0 1 1.41 1.77l-8.63 35.75a2.429 2.429 0 0 1 -2.27 1.76l-64-.11a1.36 1.36 0 0 1 -1.156-.504 1.37 1.37 0 0 1 -.254-1.236m18.33-22.11h25.6m-26.84 5.62 7.36-.08m2.64.13 12.56.1m-23.45 4.91 7.36-.08m2.65.12 12.56.11" stroke="#2b1b9e" stroke-linecap="round" stroke-linejoin="round" stroke-width="1.5"/><path d="m196.12 164c-.74.74.71-2.55 10.7-8.68 4.31-2.64 9.86-4.48 12.19-4.52 5-.08 11.53-.7 14.79.9a3.601 3.601 0 0 1 1.864 2.082 3.582 3.582 0 0 1 -.194 2.788c-1.18 2.58-2.71 2.58-4.33 3.28s-3.31 2.09-5.86 3.41c-2.15 1.1-3.14 4.81-5 6.93a17.524 17.524 0 0 1 -5.57 4.25s-2.65-5.45-5.56-7.25c-4.85-3.03-12.87-3.35-13.03-3.19z" fill="#fff"/><path d="m197.52 162c5.36-5.32 12-9.76 19.51-10.69a99.17 99.17 0 0 1 10.32-.67m-10.35 4.07a128.855 128.855 0 0 1 13.74-2.71m-9.04 6.09a18.518 18.518 0 0 1 4.46-2.11c2.74-1 5.52-1.42 6.81-2m2.96 1.32c-.89 2.76-2.5 2.78-5.16 3.94-1.31.56-3.7 2.6-5 3.16-2.55 1.11-4.13 8.59-9.25 11.15" stroke="#2b1b9e" stroke-linecap="round" stroke-linejoin="round" stroke-width="1.5"/><path d="m194.58 165a42.811 42.811 0 0 1 5.58-.75c3.41-.26 12.69 3.37 14.53 10.32s-2 7.72-2 7.72-7-6.46-9.17-8c-3.45-2.42-13.2-7.73-13.2-7.73z" fill="#fee"/><path d="m191.74 164.75a13.394 13.394 0 0 0 4.6-.44c6.95-1.74 16.6 3.25 18.35 10.22 1.43 5.72-.36 7.09-.36 7.09" stroke="#2b1b9e" stroke-linecap="round" stroke-linejoin="round" stroke-width="1.5"/><path d="m96.6 114.17c1.853.8 3.852 1.209 5.87 1.2 9.29-.3 17.31-4.07 27.8-1.12l.79.25 2-7.93s7.67 3.8 13.57-.4a13.912 13.912 0 0 0 5.44-7.38 5.888 5.888 0 0 1 2.3-3.26c.83-.54 3.82-1.07 3.16-2.9-1.31-3.68-3.23-7-2.45-9.79.36-3.15.527-6.32.5-9.49a67.61 67.61 0 0 0 -2.88-10.6s-2.5 3.19-8.94 3.71a8.151 8.151 0 0 1 -4.51-1.15 9.428 9.428 0 0 1 -9 6.48h-.09a9.422 9.422 0 0 1 -8.48 5.34 8.565 8.565 0 0 1 -1.68-.13c-1.72-1.3-3-1.38-4.08-1a4.773 4.773 0 0 0 -3.15 4.33c-.29 4.45 2.3 9 2.3 9l-7.16 3.19s-4.1 9.48-6 12.66c-.16.2-5.31 8.99-5.31 8.99z" fill="#fff"/><path d="m158.2 49.17v-.67a11.825 11.825 0 0 0 -6.885-10.792 11.83 11.83 0 0 0 -12.675 1.792c-1.69-4.49-7.19-7.07-12.26-7.07-4.62 0-7.43 2-9.39 5.9a12.109 12.109 0 0 0 -1.83-.85 12.51 12.51 0 0 0 -20-9.11 6.36 6.36 0 0 0 -10.34 5v.36c-8.06.71-7.8 9.58-6.14 12a6.36 6.36 0 0 0 -3.19 5.51 6.29 6.29 0 0 0 1 3.43 7.83 7.83 0 0 0 4.82 12 7.79 7.79 0 0 0 11.69 6.2 7.477 7.477 0 0 0 0 .82 9.4 9.4 0 0 0 5.55 8.58c-.015.29-.015.58 0 .87a9.403 9.403 0 0 0 6 8.74c1.1.443 2.275.67 3.46.67 2.83 0 7.1-3.23 7.1-3.23s-2.59-4.59-2.3-9a4.774 4.774 0 0 1 3.19-4.41c1-.33 2.36-.25 4.08 1 .556.112 1.123.17 1.69.17a9.42 9.42 0 0 0 8.48-5.34h.09a9.43 9.43 0 0 0 9-6.48 8.152 8.152 0 0 0 4.51 1.15c6.44-.52 8.94-3.71 8.94-3.71a67.607 67.607 0 0 1 2.88 10.6 1.689 1.689 0 0 0 1.1 1.37c.885.28 1.814.392 2.74.33a6.06 6.06 0 0 0 5.35-8.91 11.624 11.624 0 0 0 1.5-5.14 11.818 11.818 0 0 0 -8.16-11.78z" fill="#a195f9"/><path d="m151.22 85.24c.54-1.36.63-3.39.17-4.14a.903.903 0 0 0 -1.131-.27.903.903 0 0 0 -.319.27 3.9 3.9 0 0 0 -.68 2c-.24.85-.24 1.75 0 2.6a.934.934 0 0 0 .68.46 1.208 1.208 0 0 0 1.28-.92z" fill="#2b1b9e"/><path d="m153.47 65.28c2.8 4.29 2.5 9.83 1.94 14.92-.38 3.45-.77 7.2 1.06 10.14a4.631 4.631 0 0 1 1.12 2.57 3.008 3.008 0 0 1 -1.83 2.18 9.53 9.53 0 0 0 -2.57 1.45 9.229 9.229 0 0 0 -2.12 3.79 10.738 10.738 0 0 1 -6.16 7.17c-3.42 1.39-7.12.78-10.59-.44s-6.6-4.63-9.14-7.92m7.87 7.86c-.51 2.1-2.5 5.17-2.58 7.32" stroke="#2b1b9e" stroke-linecap="round" stroke-linejoin="round" stroke-width="1.5"/><path d="m143.25 132.54 1.31-1.77s.05-12-13.5-16.27l-.79-.25c-10.49-3-18.51.82-27.8 1.12a10.103 10.103 0 0 1 -4.73-.74 2.607 2.607 0 0 1 -.84-.57l4.2-7.32 2.05-4.54c-2.68-.67-18.33-5.1-28.51 6.27-5.33 6-5.19 13.92-3.4 18.84a10.32 10.32 0 0 0 3.69 4.84s-7.4 15.14-9.17 20.45c-3.47 10.37-8.23 36.05-8.23 36.05s20.34 2.54 27.14 2.22c11.5-.52 82.47-25.53 82.47-25.53z" fill="#fee"/><path d="m145.59 136.24c0 1.23 10.36 12.67 21.55 29.1m-45.86-86.16c-1.57-3.21-4-4.21-6.29-2.92s-2.65 3.86-2.23 6.49c.21 1.35 2 10.76 7.45 6m34.15-31.66a8.263 8.263 0 0 1 -4.43 7.57c-3.26 1.84-12.84 3.54-13.47-3.25-.16-1.77 1.8-2.59 2.66.46a8.154 8.154 0 0 1 -3.35 8.35c-2.55 1.64-6.18 2.46-8.18.18-1.11-1.28-1.18-2.23-.42-2.82.39-.31 2.1-.5 2.73 2.14.49 2 0 5-5.62 6.88m5.46-43.75c-7.74-2.18-12.76 3.37-13 6.47-.08-1.09-8.35-4.59-13.64 1a9.18 9.18 0 0 0 -1.69 9.76c-.88-1.48-6.45-1.38-6.72 3.35a7.75 7.75 0 0 0 1.81 4.75c-2.18.27-4.41 3.73-1.49 9.38m4.14 13.59c-1.13 4 1.64 8.9 7.73 11.75 1.051.523 2.184.861 3.35 1a2.22 2.22 0 0 0 2.42-1.78c.1-1.32-1.55-2.26-2.81-1.84s-1.94 2-2.18 3.25-7.49 15.22-10.66 19.67m55.83-35.81a2.87 2.87 0 0 0 -3.7.21m-2.45 23.46c-4.06-1.11-3.39-5-3.73-5.7m.2.12a5.001 5.001 0 0 0 6.29 1.32" stroke="#2b1b9e" stroke-linecap="round" stroke-linejoin="round" stroke-width="1.5"/><path d="m93.5 112.73c2.51 1.17 5 2.59 7.8 2.77 6.94.46 16.31-3.74 28.07-1.15a19.602 19.602 0 0 1 15 15.83" stroke="#2b1b9e" stroke-linecap="round" stroke-linejoin="round" stroke-width="1.5"/><path d="m142.86 131.65c-10.25-.49-15.39.09-25.31 2.73-12.5 3.32-33.26 5-41.57-1.31-13.74-10.45-1.83-36.82 25-31.48m-27.98 34.27c-9 15.56-10.58 32-14.36 49.24" stroke="#2b1b9e" stroke-linecap="round" stroke-linejoin="round" stroke-width="1.5"/><path d="m117.23 87.64a1.09 1.09 0 1 0 0-2.18 1.09 1.09 0 0 0 0 2.18z" fill="#2b1b9e"/><path d="m114.56 157.31s6.61 12.79 11.07 17.38" stroke="#2b1b9e" stroke-linecap="round" stroke-linejoin="round" stroke-width="1.5"/><path d="m33.3 146.77c-1.52 85.23 111.38 25.36 126.63 21.08 40.56-11.36 59.39 26.17 82.4 55.74" stroke="#ffb81e" stroke-linecap="round" stroke-linejoin="round" stroke-width="5"/><path d="m319 164.65h-13a4.203 4.203 0 0 1 -4.2-4.2l-1.67-25.9a2.34 2.34 0 0 1 2.34-2.34h20.05a2.347 2.347 0 0 1 2.35 2.34l-1.67 25.9a4.2 4.2 0 0 1 -4.2 4.2z" fill="#ffb41e"/><path d="m324.33 147.83s5.09-1.57 5-4.1c-.09-3.17-4.09-2.49-4.83-1.55l.23-3.92c6.28-1.94 8.43 3.18 7.59 6.74-1 4.29-6.87 6.14-8.57 6.79z" fill="#fff"/><path d="m324.52 142.18-1.29 18.27a4.2 4.2 0 0 1 -4.2 4.2h-13.03a4.203 4.203 0 0 1 -4.2-4.2" stroke="#2b1b9e" stroke-linecap="round" stroke-linejoin="round" stroke-width="1.5"/><path d="m300.48 139.58-.32-5c0-.621.247-1.216.685-1.655a2.344 2.344 0 0 1 1.655-.685h20.05a2.347 2.347 0 0 1 2.35 2.34l-.15 3.71.24.05c6.24-2 8.25 3.25 7.35 6.8s-4.63 5.16-6.34 5.86" stroke="#2b1b9e" stroke-linecap="round" stroke-linejoin="round" stroke-width="1.5"/><path d="m324.64 142.06c1.17-.9 4.46-1.18 4.71 1.77.17 2-2.63 3.21-2.63 3.21m-15.65-39.78c0 3.21-1.69 3.21-1.69 6.43s1.69 3.21 1.69 6.42-1.69 3.22-1.69 6.43" stroke="#2b1b9e" stroke-linecap="round" stroke-linejoin="round" stroke-width="1.5"/><path d="m311.07 107.26c0 3.21-1.69 3.21-1.69 6.43s1.69 3.21 1.69 6.42-1.69 3.22-1.69 6.43m8.4-8.14c0 1.95-1.69 1.95-1.69 3.91s1.69 2 1.69 3.92-1.69 2-1.69 3.92" stroke="#2b1b9e" stroke-linecap="round" stroke-linejoin="round" stroke-width="1.5"/><path d="m317.78 118.4c0 1.95-1.69 1.95-1.69 3.91s1.69 2 1.69 3.92-1.69 2-1.69 3.92" stroke="#2b1b9e" stroke-linecap="round" stroke-linejoin="round" stroke-width="1.5"/><path d="m255 215h-67.93c-.95 0-1.72.77-1.72 1.72v63.68c0 .95.77 1.72 1.72 1.72h67.93c.95 0 1.72-.77 1.72-1.72v-63.68c0-.95-.77-1.72-1.72-1.72z" fill="#fff7e8"/><path d="m190.88 221.98a1.47 1.47 0 1 0 0-2.94 1.47 1.47 0 0 0 0 2.94zm5.86 0a1.47 1.47 0 1 0 0-2.94 1.47 1.47 0 0 0 0 2.94z" fill="#2b1b9e"/><path d="m256.87 219.83c-.14 1.95-.19 34.52-.19 34.52v26a1.731 1.731 0 0 1 -1.72 1.73h-67.96c-.459 0-.899-.182-1.223-.507a1.726 1.726 0 0 1 -.507-1.223v-63.63a1.725 1.725 0 0 1 1.069-1.592c.21-.086.434-.129.661-.128h65.81" stroke="#2b1b9e" stroke-linecap="round" stroke-linejoin="round" stroke-width="1.5"/><path d="m212.6 272.37a9.37 9.37 0 0 0 9.37-9.37 9.37 9.37 0 0 0 -9.37-9.37 9.37 9.37 0 0 0 -9.37 9.37 9.37 9.37 0 0 0 9.37 9.37z" fill="#ffb41e"/><path d="m228.33 272.89a9.37 9.37 0 0 0 9.37-9.37 9.37 9.37 0 0 0 -9.37-9.37 9.37 9.37 0 0 0 -9.37 9.37 9.37 9.37 0 0 0 9.37 9.37z" fill="#ffb41e"/><path d="m228.33 272.89a9.37 9.37 0 0 0 9.37-9.37 9.37 9.37 0 0 0 -9.37-9.37 9.37 9.37 0 0 0 -9.37 9.37 9.37 9.37 0 0 0 9.37 9.37z" stroke="#2b1b9e" stroke-linecap="round" stroke-linejoin="round" stroke-width="1.5"/><path d="m222.62 232.62c4.36 4.89 5.37 12.17 4.31 17.45-.18.91 6.17 2.28 6.35.78.48-3.92.47-5.39-.93-11.8-1.09-5-3.47-9.32-8.4-10.76a12.558 12.558 0 0 0 -12.95 3.62c-8.07 8.66-5.25 19.14-5 19.37l5.62-1.16s0-7.21 1-9.63c4.3-10.49 10-7.87 10-7.87z" fill="#ffb41e"/><path d="m223.46 228c-3-.87-8-.86-12.44 3.94a21.283 21.283 0 0 0 -5.26 18.38 1.36 1.36 0 0 0 1.61 1.06l3.12-.66a1.338 1.338 0 0 0 1.07-1.43c-.34-3.9-.75-16.13 10.52-16.81 0 0 4.94 1.2 3.89-.9-.88-1.77-5.46 0-3.67 1.5 4.23 3.49 5.21 10.57 4.86 16.62-.13 2.2 5.92 2.77 6 .85a43.806 43.806 0 0 0 -.82-11.47 16.415 16.415 0 0 0 -2.87-6.65m-18.1 26.07a4.8 4.8 0 0 0 -1.688 1.012 4.8 4.8 0 0 0 -1.534 3.534c.003.663.143 1.318.412 1.924a4.894 4.894 0 0 0 5.55 2.66m14.7 2.47a6.159 6.159 0 0 1 -4.356-10.516 6.168 6.168 0 0 1 3.154-1.686 6.167 6.167 0 0 1 6.324 2.62 6.159 6.159 0 0 1 1.038 3.422" stroke="#2b1b9e" stroke-linecap="round" stroke-linejoin="round" stroke-width="1.5"/><path d="m217.48 271a9.367 9.367 0 0 1 -9.392.217 9.375 9.375 0 0 1 -4.859-8.04 9.367 9.367 0 0 1 9.237-9.543 9.37 9.37 0 0 1 4.714 1.196m11.04-3.49-.33 2.36m4.19-1.98a8.304 8.304 0 0 1 -.3 2.77m-24.58-2.91s.45 2.61.93 2.87m2.69-3.71c0 .11 0 2.42.85 2.84m2.76 4.55s2.32-.27 3.79 2.81" stroke="#2b1b9e" stroke-linecap="round" stroke-linejoin="round" stroke-width="1.5"/><path d="m199 334.75h-57.85a1.473 1.473 0 0 1 -1.47-1.47v-65a1.67 1.67 0 0 1 1.46-1.69l57.82.22a1.473 1.473 0 0 1 1.47 1.47v65a1.473 1.473 0 0 1 -1.43 1.47z" fill="#eff8fe"/><path d="m186.24 285.27c-1.09-1.39-2.71-1.72-4.48-1.87-1.23-.1-16.82-.14-18.72-.15a5.158 5.158 0 0 0 -3.19 1.08c-3.08 2.84-12.8 12.25-12.8 12.25s5.59 5.7 9.38 8.94c.41-.6 1.61-1.8 2.79-3.13.09 6.36.09 13.06.29 19.25a1.098 1.098 0 0 0 1.07 1.06c4.76.12 17.66-.08 22 0a1.099 1.099 0 0 0 1.11-1.08c.06-3.46 0-13.85.19-20.61 2.61 2.43 1.94 2.17 4.34 4.53 2.35-1.86 5.95-5.9 8.49-8.3-2.45-2.77-7.87-8.64-10.47-11.97z" fill="#fff"/><path d="m175 302.64c.6 1.12-2.14 10.68-4.47 8.89-1.72-1.33 2.89-7.49 5.82-4.26m-1.35-13.78c.26 1.05-1.19 3.29-2.36 5s-3.83 5.36-2.52 5.81c1 .35 4-3.26 4.9-1.7m-10.13.3c2.68-3.41 4.61-6.24 7.91-9.29 1.24-1.14 2-1 2.2-.12" stroke="#ffb81e" stroke-linecap="round" stroke-linejoin="round" stroke-width="2"/><path d="m178.47 283.46s-13.71-.06-15.61-.08a6.639 6.639 0 0 0 -4.23 1.88l-11.77 11.39s5.59 5.7 9.38 8.93c.89-1.31 5.71-5.59 5.42-7.63a1.203 1.203 0 0 0 -.455-.874 1.22 1.22 0 0 0 -.955-.246 1.73 1.73 0 0 0 -1 1.06 9.887 9.887 0 0 0 -.26 3.56c.11 6.65.1 13.74.31 20.26a1.098 1.098 0 0 0 1.07 1.06c4.76.12 17.66-.09 22 0a1.099 1.099 0 0 0 1.11-1.08c.06-3.62 0-14.82.22-21.52 0-1.27-.6-4.2-2.17-3.31-1 .56-.17 2.13.67 2.88 4.37 3.92 3 3.15 5.81 5.87 2.34-1.85 5.94-5.9 8.49-8.3-2.44-2.75-7.86-8.62-10.46-11.94-1.09-1.4-2.77-1.66-4.54-1.81-1.24-.1-3 0-3.26-.06a5.542 5.542 0 0 1 -5.95 4.94 5.63 5.63 0 0 1 -4.4-1.81" stroke="#2b1b9e" stroke-linecap="round" stroke-linejoin="round" stroke-width="1.5"/><path d="m145.82 273.03a1.47 1.47 0 1 0 0-2.94 1.47 1.47 0 0 0 0 2.94zm5.87 0a1.47 1.47 0 1 0 0-2.94 1.47 1.47 0 0 0 0 2.94z" fill="#2b1b9e"/><path d="m140.37 273.34c.12 1.65.16 27.82.16 27.82v32.12a1.46 1.46 0 0 0 1.46 1.47h57.82a1.459 1.459 0 0 0 1.46-1.47v-65a1.464 1.464 0 0 0 -.899-1.358 1.459 1.459 0 0 0 -.561-.112h-5.26c-4.26 0-5.73 6.85-3.11 6.85 1.61 0 2.22-6.86-11.19-6.86h-34.09m16.73 52.48h13.6m2.39 0h1.91" stroke="#2b1b9e" stroke-linecap="round" stroke-linejoin="round" stroke-width="1.5"/><path d="m95.16 432.26a11.814 11.814 0 0 0 -.53-3.83c-.77-1.43-3.31-6.59-3.31-8a21.193 21.193 0 0 1 1-4.68c.16-.43-.25 1.89 3.47 2.13 3.28.21 3.62-.09 4.43-.75s2-2.05 2.77-1.38 0 2.27 0 2.27.42.34.42 1.46.12 2.25.84 2.6c1.28.62.57 1 .72 1.82s-1.3 4.79-2.25 6.1c-.43.59-.88 1-3.21 1.58a21.48 21.48 0 0 1 -4.35.68zm26.04-14.98s-1.47-1.4-2.22-2a6.224 6.224 0 0 1 -2-2.75 29.242 29.242 0 0 0 -.94-3.8 15.514 15.514 0 0 0 -1.74-2.24c-.28-.31-.91-1.24-.45-1.52a2.8 2.8 0 0 1 2.08.34c.3.26 1.28.89 1.28.89s.47-.11.13-.89a4.62 4.62 0 0 0 -1.82-2 4.704 4.704 0 0 1 -2.11-2 8.852 8.852 0 0 1 -.46-1.58 15.15 15.15 0 0 1 3 1.25 17.277 17.277 0 0 1 4.19 3.4 20.245 20.245 0 0 1 2.18 4 13.633 13.633 0 0 0 1.94 3.58c.444.411.856.855 1.23 1.33.276.337.446.747.49 1.18 0 0-.31 1.12-1.17 1.31s-2.37 1.53-3 1.46zm3.89-31.28c-.376.596-.71 1.217-1 1.86a10.448 10.448 0 0 0 -.74 4.37c.13 2 .36 3.74.35 4.56a7.567 7.567 0 0 1 -.64 3.16c-.47.76-1 1.27-.56 1.83s1.63.79 2.2 1.53a12.255 12.255 0 0 1 1.54 3.07 3.632 3.632 0 0 0 2 2.43 8.373 8.373 0 0 0 3.66.63c1.17-.23 3.26-.69 3.26-.69s1.13 4.22 1.2 4a14.784 14.784 0 0 1 5.2-.63c1.39.26 7.6.94 8.31 1s3.76-.05 4.07-.36-.53-1.75-.53-1.75l-3.41-8.74s-.13-.85-.68-.77-1.46.4-2-.33l-2.84-1.64a9.348 9.348 0 0 0 1.18-3.73c0-1.6-.22-3.52-1.58-3.34a8.342 8.342 0 0 0 -2.56.57 4.876 4.876 0 0 1 -2.84-.45 18.52 18.52 0 0 1 -1.83-1.79s-2.63-.57-3.29-1.3a23.99 23.99 0 0 1 -1.7-2.31s-1.08.77-3.81.22a15.006 15.006 0 0 1 -2.96-1.4z" fill="#fff"/><path d="m109.63 417-6.24.55v3.26s0 1.25 1 1.43l.73.15v9.91l2.87 3.37v-14.78c.72-.68 1.66-1.41 1.66-1.41z" fill="#fff"/><path d="m103.29 417.5-.32-1.72h-1.21l-2.38 2-5.61-.24c-1 0-1.47-.74-1.47-1.75l.16-11.08a2.876 2.876 0 0 1 2.06-2.56l5.39-.19c.4-.16.65-.75.83-1.15l1.26-1.81a.938.938 0 0 1 .82-.62h4.23c.31 0 .6.07.82.66l1.12 2.17 4.13.07a28.016 28.016 0 0 0 3.6 2.88 2.136 2.136 0 0 1 .72 1.83l-3.18-1-.41.85 2.41 3.47-.33 4.22c0 1 .19 2.92-.82 2.92l-9.91.86z" fill="#f5f4fe"/><path d="m109.28 413.67-9.07.8.12-9.14 8.84-.45z" fill="#fff"/><path d="m100.44 401.94h-5.93l1.22-2.2 3.06.06a.604.604 0 0 1 .5.29z" fill="#f5f4fe"/><path d="m88.13 405.68h4.43v8.59h-4.43a4.138 4.138 0 0 1 -4.13-4.14v-.32a4.14 4.14 0 0 1 4.13-4.13zm76.47-24.21a3.313 3.313 0 0 0 -1.13-4.67c.86-1.24 1-5.86-3.2-6.23v-.19a3.307 3.307 0 0 0 -1.881-2.991 3.316 3.316 0 0 0 -3.509.411 6.419 6.419 0 0 0 -4.66-1.25 6.52 6.52 0 0 0 -5.74 6 5.603 5.603 0 0 0 -1 .44 5.003 5.003 0 0 0 -4.89-3.08c-2.64 0-5.51 1.35-6.39 3.69a6.156 6.156 0 0 0 -6.596-.941 6.158 6.158 0 0 0 -3.594 5.611v.35a6.159 6.159 0 0 0 -4.2 6.17 5.92 5.92 0 0 0 .78 2.68 3.069 3.069 0 0 0 -.37 1.48 3.165 3.165 0 0 0 .923 2.238 3.144 3.144 0 0 0 2.237.922c1 0 1.86 0 2-.89a35.128 35.128 0 0 1 1.5-5.52s1.3 1.66 4.66 1.93a4.15 4.15 0 0 0 2.46-.63 4.904 4.904 0 0 0 4.66 3.38 4.89 4.89 0 0 0 5.3 2.7 2.265 2.265 0 0 1 2.13-.55 2.479 2.479 0 0 1 1.64 2.26 9.899 9.899 0 0 1 -1.2 4.71s2.22 1.68 3.7 1.68a4.91 4.91 0 0 0 4.91-4.91c.01-.15.01-.3 0-.45a4.883 4.883 0 0 0 2.9-4.47v-.43c.606.36 1.296.553 2 .56a4.068 4.068 0 0 0 4.06-3.79 4.078 4.078 0 0 0 3.2-4 4 4 0 0 0 -.7-2.22z" fill="#a195f9"/><path d="m125.71 397.42a3.09 3.09 0 0 1 -.08-2.15.467.467 0 0 1 .375-.193.456.456 0 0 1 .375.193c.208.295.332.641.36 1 .126.445.126.916 0 1.36a.5.5 0 0 1 -.35.24.663.663 0 0 1 -.68-.45z" fill="#2b1b9e"/><path d="m124.54 387c-1.46 2.24-1.3 5.12-1 7.78.2 1.79.4 3.74-.55 5.28a2.492 2.492 0 0 0 -.59 1.34 1.547 1.547 0 0 0 1 1.13c.481.187.932.443 1.34.76.523.568.9 1.254 1.1 2a5.613 5.613 0 0 0 3.16 3.71 7.698 7.698 0 0 0 5.52-.23c1.76-.62 3.43-2.41 4.75-4.12m-4.09 4.1a29.733 29.733 0 0 1 1.15 4.31" stroke="#2b1b9e" stroke-linecap="round" stroke-linejoin="round" stroke-width="1.5"/><path d="m95.66 432.2a1 1 0 0 0 -.77 1.25c1.55 5 8.55 25.82 18.47 29.15a15.12 15.12 0 0 0 17.43-5.4v7.24l-.22 5.14s9.33 1.42 25.66-4.91c13.22-5.13 17.59-15.17 17.59-15.17l-.42-3.5a106.953 106.953 0 0 0 -3.11-13.47c-.93-2.77-4.79-10.66-4.79-10.66s4.95-6.37.35-11.51c-5.88-6.56-14.39-4-14.39-4l2.6 6.08s-.63.76-2.91.68c-4.84-.15-9-2.11-14.48-.58-7.48 2.11-7.45 8.61-7.45 8.61l.68.93s-13.23 22-13.6 22.14-13.06-13.92-13.06-13.92l-2.95 1.29c-.81.35-3.36.41-4.63.61z" fill="#fee"/><path d="m126.6 429.76c-.33-.29-6.88-12-6.88-12a17.34 17.34 0 0 0 3.92-1.2 11.685 11.685 0 0 0 2.45-2.2l5.52 6.48 1.66 7.53z" fill="#fee"/><g stroke-linecap="round" stroke-linejoin="round"><path d="m141.32 394.26c.82-1.67 2.06-2.19 3.28-1.52s1.38 2 1.16 3.39c-.11.7-1.06 5.6-3.88 3.12m-17.8-16.5a4.326 4.326 0 0 0 2.31 3.95c1.7.95 6.69 1.84 7-1.7.08-.92-.94-1.35-1.39.24a4.257 4.257 0 0 0 1.75 4.35c1.33.86 3.22 1.29 4.26.09.58-.66.61-1.16.22-1.46-.2-.16-1.09-.26-1.43 1.11-.25 1.05 0 2.63 2.94 3.59m-2.83-22.8c4-1.14 6.65 1.75 6.77 3.37 0-.57 4.34-2.39 7.1.52a4.79 4.79 0 0 1 .88 5.09c.46-.77 3.37-.72 3.51 1.75a4.214 4.214 0 0 1 -.94 2.48c1.13.14 2.29 1.94.77 4.88m-2.15 7.08c.59 2.09-1 4.41-2.66 5.81a3.185 3.185 0 0 1 -1.75.53 1.152 1.152 0 0 1 -1.26-.93 1.113 1.113 0 0 1 1.47-1 2.115 2.115 0 0 1 1.13 1.7c.12.68 2.54 8.23 4.18 10.56m-29.09-18.63a1.501 1.501 0 0 1 1.93.11m2.68 10.87a2.787 2.787 0 0 1 -3.32.9" stroke="#2b1b9e" stroke-width="1.5"/><path d="m155.8 411.75a11.676 11.676 0 0 1 -4.07 1.44c-3.61.24-8.5-1.95-14.62-.59a10.204 10.204 0 0 0 -7.82 8.25" stroke="#2b1b9e" stroke-width="1.5"/><path d="m129.33 421.12c5.34-.25 8.76.54 13.94 1.91 6.51 1.73 18 3.32 21.66-.68 6.7-7.26.45-19-13.53-16.17m-58.95 8.36c-.09 2.16-1.35 4.42-1.1 6.46.175 1.17.536 2.304 1.07 3.36.77 1.68 2.85 4.52 2.92 7.45m-.11-11.47a15.8 15.8 0 0 0 3-1.92c2-1.51 3.55-2.9 4.32-2.61 2 .78-2.14 5.13-2 6.7s.5 4.2-.78 5.13m-4.61 4.62c4.7.62 10.45-1.7 9.9-4.2a1.266 1.266 0 0 0 -1.24-.995 1.269 1.269 0 0 0 -1.24.995 2.67 2.67 0 0 0 .37 2.13c3 5.55 10.07 9.18 13.89 14.23 1 1.28 0 3.77-1.63 2.9s.6-3.28 1.06-3.56c3.58-2.2 9.65-17.4 12.81-20.16" stroke="#2b1b9e" stroke-width="1.5"/><path d="m95.56 434.88a98.672 98.672 0 0 0 5.44 13.62 40.403 40.403 0 0 0 5.38 8.95 17.128 17.128 0 0 0 8.56 5.74c5.57 1.43 11.74-1.1 15.35-5.58a12.806 12.806 0 0 0 2.34-5.06c.37-1.73.82-5.29-.8-4.71-1.39.51-1 12.36-1 15.91 0 .9 0 8.15-.81 8.53m36.46-48.47c4.12 7.13 5.26 14.63 6.82 22.45m-75.24-40.97v10.46m5.23 1.75 11.32-1a1.492 1.492 0 0 0 1.39-1.5m-6.59-7.5-.13 6.17-9.07.8.03-9.23 8.93-.36m-16.75 9.3h-5a3.515 3.515 0 0 1 -2.12-.92 4.64 4.64 0 0 1 -.43-6.1 3.495 3.495 0 0 1 2.55-1.42h3.53m22.32 6.75a1.88 1.88 0 1 0 0-3.76 1.88 1.88 0 0 0 0 3.76z" stroke="#2b1b9e" stroke-width="1.5"/><path d="m108.72 400.62-.81-1.56a1.366 1.366 0 0 0 -1.21-.73h-3.23a1.774 1.774 0 0 0 -1.47.67l-2.09 3c-2.65.08-3.5.08-4.93.13a2.619 2.619 0 0 0 -2 1.1v.06a2.618 2.618 0 0 0 -.45 1.46v11.38a1.676 1.676 0 0 0 1.035 1.561c.204.085.424.129.645.129h2.21m24.78-.75a7.697 7.697 0 0 0 -.62-.67c-.75-.69-1.77-1-2.48-1.78a6.399 6.399 0 0 1 -1.76-3.28c-.23-1.25-.15-2.42-1-3.37a11.719 11.719 0 0 1 -1.28-1.77 1.11 1.11 0 0 1 -.16-.67.616.616 0 0 1 .4-.52c.135-.028.275-.028.41 0a8.629 8.629 0 0 1 4.16 2.6m-1.39-1.61a2.527 2.527 0 0 0 -1-1.92c-.5-.41-1.09-.84-1.63-1.2a4.188 4.188 0 0 1 -1.66-2.26.587.587 0 0 1 .459-.739.595.595 0 0 1 .321.029 12.29 12.29 0 0 1 2.34 1.45 36.263 36.263 0 0 1 3.22 2.45 10.866 10.866 0 0 1 2.71 4.29c.219.716.483 1.417.79 2.1a23.228 23.228 0 0 0 1.62 2.33" stroke="#2b1b9e" stroke-width="1.5"/><path d="m125.52 428.08a85.047 85.047 0 0 0 -3.33-5.71 21.01 21.01 0 0 1 -2.5-4.67 6.48 6.48 0 0 0 3.11-.75 6.363 6.363 0 0 0 3-2.09c.51-.78 1.25.57 1.86 1.2.73.751 1.361 1.591 1.88 2.5m-41.98-6.18a2.996 2.996 0 0 1 -1.213-2.41 2.999 2.999 0 0 1 1.213-2.41m23.21-6.22 2.39-.04m-18.16.16.48-1.23a1.003 1.003 0 0 1 .93-.61h2.38" stroke="#2b1b9e" stroke-width="1.5"/></g><path d="m106.54 403-2.89.06a.536.536 0 0 1 -.56-.54v-1.22a.548.548 0 0 1 .54-.55h2.9a.553.553 0 0 1 .54.55v1.15a.542.542 0 0 1 -.53.55z" fill="#a195f9"/><path d="m111.31 406.38a.52.52 0 1 0 0-1.04.52.52 0 0 0 0 1.04zm0 1.82a.52.52 0 1 0 0-1.04.52.52 0 0 0 0 1.04z" fill="#2b1b9e"/><path d="m103.39 417.5v3.14a1.721 1.721 0 0 0 1.71 1.71h.53c.407-.002.8-.147 1.11-.41l2.89-2.46v-2.32m-4.53 5.19v2.37m3.33-3.89v12.33" stroke="#2b1b9e" stroke-linecap="round" stroke-linejoin="round" stroke-width="1.5"/><path d="m107.6 412-5.55.33a.375.375 0 0 1 -.382-.257.377.377 0 0 1 -.018-.163l.23-2c0-.88.55-1.17 1.44-1.21l3-.16a1.411 1.411 0 0 1 1.52 1.36c.06.41.22 1.77.22 1.77.06.18-.25.33-.46.33z" fill="#ffb41e"/><path d="m106.09 409a1.839 1.839 0 0 0 -.86-1.84 1.35 1.35 0 0 0 -1.69.47 1.946 1.946 0 0 0 -.26 1.6" stroke="#2b1b9e" stroke-linecap="round" stroke-linejoin="round" stroke-width="1.5"/><path d="m98.06 458.16c2.16.19.78 4.38 11 8.78 39.54 17 65.6-14.61 65.6-14.61" stroke="#fe585a" stroke-linecap="round" stroke-linejoin="round" stroke-width="5"/><path d="m293.21 106.98c19.656 0 35.59-16.05 35.59-35.85s-15.934-35.85-35.59-35.85-35.59 16.05-35.59 35.85 15.934 35.85 35.59 35.85z" fill="#67baf8"/><path d="m323.8 71.41c0 16.69-14.54 30.09-30.87 30.09s-29.93-14.15-29.93-30.85a30.063 30.063 0 0 1 30-30c16.32-.03 30.8 14.07 30.8 30.76z" fill="#eff8fe"/><path d="m323.8 71.41c0 16.69-14.54 30.09-30.87 30.09s-29.93-14.15-29.93-30.85a29.868 29.868 0 0 1 32.934-29.87 29.874 29.874 0 0 1 15.306 6.16m-18.68-3.3.06 2.68m-.06 50.01.06 2.67m-26.52-24.92 2.46-.07m49.62.07 2.46-.07m-30.91-10.01c.29 4.36.09 9.39.39 13.75" stroke="#2b1b9e" stroke-linecap="round" stroke-linejoin="round" stroke-width="2.05"/><path d="m285.29 63.35c-.52 1.12-1.84 5.84-2.76 7.71l7.28-.08m10.19-7.68a28.29 28.29 0 0 0 -5.81.15s0 6.78.13 6.78a16.147 16.147 0 0 1 3.59.14c3.75 1 3.62 4.92 1 6.54-1.27.79-4 .45-5.37-.23m10.99-14.2s.19 2.23.16 2.49" stroke="#2b1b9e" stroke-linecap="round" stroke-linejoin="round" stroke-width="2.05"/></svg>