<svg width="197" height="189" fill="none" xmlns="http://www.w3.org/2000/svg"><path d="M123.833 43.354L109.02 11.051A12.16 12.16 0 0 0 98.504 5a12.164 12.164 0 0 0-10.517 6.051L65.47 56.763l-50.444 7.326A11.685 11.685 0 0 0 8.53 84.024l36.492 35.581-8.611 50.245a11.688 11.688 0 0 0 4.65 11.428 11.687 11.687 0 0 0 12.305.888l45.139-23.732 45.115 23.709a11.692 11.692 0 0 0 12.306-.889 11.682 11.682 0 0 0 4.649-11.427l-8.611-50.246 36.515-35.557a11.69 11.69 0 0 0 2.95-11.972 11.681 11.681 0 0 0-9.423-7.951l-.024-.012-25.222-3.669c-23.849-3.384-63.249-1.73-60.691 18.032 2.436 18.822 34.979-4.096 30.757-15.557" stroke="#FA585A" stroke-width="9" stroke-linecap="round" stroke-linejoin="round"/><path d="M160.574 169.827a11.682 11.682 0 0 1-10.675 13.628 11.692 11.692 0 0 1-6.28-1.312l-45.115-23.709-45.14 23.732a11.682 11.682 0 0 1-12.305-.888 11.692 11.692 0 0 1-4.65-11.428l8.613-50.245L8.529 84.024a11.685 11.685 0 0 1 6.497-19.935l50.444-7.326L87.987 11.05a12.165 12.165 0 0 1 21.033 0l14.813 32.303" stroke="#9D91F5" stroke-width="9" stroke-linecap="round" stroke-linejoin="round"/><path d="M53.365 182.166a11.682 11.682 0 0 1-12.306-.888 11.692 11.692 0 0 1-4.65-11.428l8.613-50.245L8.529 84.024a11.685 11.685 0 0 1 6.497-19.935l50.444-7.326L87.987 11.05a12.165 12.165 0 0 1 21.033 0l14.813 32.303" stroke="#67B6F4" stroke-width="9" stroke-linecap="round" stroke-linejoin="round"/><path d="M8.53 84.024a11.685 11.685 0 0 1 6.496-19.935l50.444-7.326L87.987 11.05a12.165 12.165 0 0 1 21.033 0l14.813 32.303c5.822 11.742 9.506 36.671-22.338 42.46" stroke="#FFB41E" stroke-width="9" stroke-linecap="round" stroke-linejoin="round"/></svg>